<svg class="icon line" width="48" height="48" id="action-camera" xmlns="http://www.w3.org/2000/svg" viewBox="0 0 24 24"><title style="stroke-width: 2; stroke: rgb(0, 0, 0);">action camera</title><path id="primary" d="M20,16v3a1,1,0,0,1-1,1H4a1,1,0,0,1-1-1V6A1,1,0,0,1,4,5H9M21,15V5a1,1,0,0,0-1-1H10A1,1,0,0,0,9,5V15a1,1,0,0,0,1,1H20A1,1,0,0,0,21,15ZM15,8a2,2,0,1,0,2,2A2,2,0,0,0,15,8Z" style="fill: none; stroke: rgb(0, 0, 0); stroke-linecap: round; stroke-linejoin: round; stroke-width: 2;"></path></svg>