<svg class="icon line" width="48" height="48" id="action-cam" xmlns="http://www.w3.org/2000/svg" viewBox="0 0 24 24"><title style="stroke-width: 2; stroke: rgb(0, 0, 0);">action cam</title><line id="primary-upstroke" x1="16.5" y1="7" x2="16.5" y2="7" style="fill: none; stroke: rgb(0, 0, 0); stroke-linecap: round; stroke-linejoin: round; stroke-width: 2;"></line><path id="primary" d="M20,11v3a1,1,0,0,1-1,1H4a1,1,0,0,1-1-1V5A1,1,0,0,1,4,4h8M7,8H8m13,2V4a1,1,0,0,0-1-1H13a1,1,0,0,0-1,1v6a1,1,0,0,0,1,1h7A1,1,0,0,0,21,10Zm-7,5H10v6h4Z" style="fill: none; stroke: rgb(0, 0, 0); stroke-linecap: round; stroke-linejoin: round; stroke-width: 2;"></path></svg>