<svg class="icon line" width="48" height="48" id="air-conditioner-temperature-plus" xmlns="http://www.w3.org/2000/svg" viewBox="0 0 24 24"><title style="stroke-width: 2; stroke: rgb(0, 0, 0);">air conditioner temperature plus</title><path id="primary" d="M12,11h8a1,1,0,0,1,1,1v8a1,1,0,0,1-1,1H4a1,1,0,0,1-1-1V12a1,1,0,0,1,1-1H6m11,7a1,1,0,0,0-1-1H8a1,1,0,0,0-1,1v3H17ZM11,7.78V5A2,2,0,0,0,9,3H9A2,2,0,0,0,7,5V7.78a3,3,0,0,0-1,2.75A3,3,0,0,0,12,10,3,3,0,0,0,11,7.78ZM15,6h4M17,4V8" style="fill: none; stroke: rgb(0, 0, 0); stroke-linecap: round; stroke-linejoin: round; stroke-width: 2;"></path></svg>