<svg class="icon line" width="48" height="48" id="air-conditioner-temperature" xmlns="http://www.w3.org/2000/svg" viewBox="0 0 24 24"><title style="stroke-width: 2; stroke: rgb(0, 0, 0);">air conditioner temperature</title><path id="primary" d="M15,11h5a1,1,0,0,1,1,1v8a1,1,0,0,1-1,1H4a1,1,0,0,1-1-1V12a1,1,0,0,1,1-1H9m8,7a1,1,0,0,0-1-1H8a1,1,0,0,0-1,1v3H17ZM14,7.78V5a2,2,0,0,0-2-2h0a2,2,0,0,0-2,2V7.78a3,3,0,0,0-.95,2.75A3,3,0,0,0,15,10,3,3,0,0,0,14,7.78Z" style="fill: none; stroke: rgb(0, 0, 0); stroke-linecap: round; stroke-linejoin: round; stroke-width: 2;"></path></svg>