<svg class="icon line" width="48" height="48" id="airbnb-circle" xmlns="http://www.w3.org/2000/svg" viewBox="0 0 24 24"><title style="stroke-width: 2; stroke: rgb(0, 0, 0);">airbnb circle</title><path id="primary" d="M13,13h0a2.19,2.19,0,0,1-1,1.87l-.75.46A4.48,4.48,0,0,1,8.85,16h0A1.85,1.85,0,0,1,7,14.15H7a1.82,1.82,0,0,1,.24-.91l2.9-5.15A2.14,2.14,0,0,1,12,7h0a2.14,2.14,0,0,1,1.86,1.09l2.9,5.15a1.82,1.82,0,0,1,.24.91h0A1.85,1.85,0,0,1,15.15,16h0a4.48,4.48,0,0,1-2.36-.67L12,14.87A2.19,2.19,0,0,1,11,13h0a1,1,0,0,1,1-1h0A1,1,0,0,1,13,13ZM12,3a9,9,0,1,0,9,9A9,9,0,0,0,12,3Z" style="fill: none; stroke: rgb(0, 0, 0); stroke-linecap: round; stroke-linejoin: round; stroke-width: 2;"></path></svg>