<svg class="icon line" width="48" height="48" id="audible-circle" xmlns="http://www.w3.org/2000/svg" viewBox="0 0 24 24"><title style="stroke-width: 2; stroke: rgb(0, 0, 0);">audible circle</title><g id="primary" style="stroke-width: 2; stroke: rgb(0, 0, 0);"><path d="M9.64,9.51A3.4,3.4,0,0,1,12,8.25a3.63,3.63,0,0,1,2.72.91l.08.06a1,1,0,0,1-1.35,1.52,1.06,1.06,0,0,1-.17-.2A1.87,1.87,0,0,0,12,9.75a2.09,2.09,0,0,0-1.64.45h0a.5.5,0,0,1-.7-.08A.51.51,0,0,1,9.64,9.51Z"></path></g><path id="primary-2" data-name="primary" d="M17,13l-5,2L7,13M12,3a9,9,0,1,0,9,9A9,9,0,0,0,12,3Z" style="fill: none; stroke: rgb(0, 0, 0); stroke-linecap: round; stroke-linejoin: round; stroke-width: 2;"></path></svg>