<svg class="icon line" width="48" height="48" id="audio-jack-connector-right" xmlns="http://www.w3.org/2000/svg" viewBox="0 0 24 24"><title style="stroke-width: 2; stroke: rgb(0, 0, 0);">audio jack connector right</title><path id="primary" d="M18,5V9H14V5a2,2,0,0,1,2-2h0A2,2,0,0,1,18,5ZM16,17h0a3,3,0,0,0,3-3V10a1,1,0,0,0-1-1H14a1,1,0,0,0-1,1v4A3,3,0,0,0,16,17Zm0,0v.5A3.5,3.5,0,0,1,12.5,21h0A3.5,3.5,0,0,1,9,17.5V8A2,2,0,0,0,7,6H7A2,2,0,0,0,5,8V18" style="fill: none; stroke: rgb(0, 0, 0); stroke-linecap: round; stroke-linejoin: round; stroke-width: 2;"></path></svg>