<svg class="icon line" width="48" height="48" id="audible" xmlns="http://www.w3.org/2000/svg" viewBox="0 0 24 24"><title style="stroke-width: 2; stroke: rgb(0, 0, 0);">audible</title><polyline id="primary" points="3 13 12 17 21 13" style="fill: none; stroke: rgb(0, 0, 0); stroke-linecap: round; stroke-linejoin: round; stroke-width: 2;"></polyline><g id="primary-2" data-name="primary" style="stroke-width: 2; stroke: rgb(0, 0, 0);"><path d="M5.18,9.42A9.59,9.59,0,0,1,12,6.25a9.82,9.82,0,0,1,7.18,2.8h0a1,1,0,0,1,0,1.42,1,1,0,0,1-1.41,0s0,0-.05-.05A8.07,8.07,0,0,0,12,7.75,8.27,8.27,0,0,0,5.9,10.1a.49.49,0,0,1-.7,0A.5.5,0,0,1,5.18,9.42Z"></path></g><g id="primary-3" data-name="primary" style="stroke-width: 2; stroke: rgb(0, 0, 0);"><path d="M9.45,11.18a5.69,5.69,0,0,1,5.36-.48l.06,0a1,1,0,0,1-.79,1.86.88.88,0,0,1-.21-.12,4.28,4.28,0,0,0-4-.48.45.45,0,0,1-.59-.26A.44.44,0,0,1,9.45,11.18Z"></path></g></svg>