<svg class="icon line" width="48" height="48" id="audio-jack-cable-left" xmlns="http://www.w3.org/2000/svg" viewBox="0 0 24 24"><title style="stroke-width: 2; stroke: rgb(0, 0, 0);">audio jack cable left</title><path id="primary" d="M6.41,3.59l4.25,4.24L9.24,9.24,7.83,10.66,3.59,6.41a2,2,0,0,1,0-2.82h0A2,2,0,0,1,6.41,3.59Zm9.9,12.72h0a3,3,0,0,0,0-4.24L12.07,7.83a1,1,0,0,0-1.41,0L7.83,10.66a1,1,0,0,0,0,1.41l4.24,4.24A3,3,0,0,0,16.31,16.31Zm0,0L21,21" style="fill: none; stroke: rgb(0, 0, 0); stroke-linecap: round; stroke-linejoin: round; stroke-width: 2;"></path></svg>