<svg class="icon line" width="48" height="48" id="balance-scale-right" xmlns="http://www.w3.org/2000/svg" viewBox="0 0 24 24"><title style="stroke-width: 2; stroke: rgb(0, 0, 0);">balance scale right</title><path id="primary" d="M12,3V5m8.86-.56L13,5.83m-2,.34L3.14,7.56M12,5a1,1,0,1,0,1,1A1,1,0,0,0,12,5Zm9,12V16H15v1a3,3,0,0,0,3,3h0A3,3,0,0,0,21,17Zm0-1L18,5,15,16M6,21H6a3,3,0,0,0,3-3V17H3v1A3,3,0,0,0,6,21Zm3-4L6,7.06,3,17" style="fill: none; stroke: rgb(0, 0, 0); stroke-linecap: round; stroke-linejoin: round; stroke-width: 2;"></path></svg>