<svg class="icon line" width="48" height="48" id="balance-scale" xmlns="http://www.w3.org/2000/svg" viewBox="0 0 24 24"><title style="stroke-width: 2; stroke: rgb(0, 0, 0);">balance scale</title><path id="primary" d="M12,3V5m9,1H13M11,6H3m9-1a1,1,0,1,0,1,1A1,1,0,0,0,12,5Zm9,13V17H15v1a3,3,0,0,0,3,3h0A3,3,0,0,0,21,18Zm0-1L18,6,15,17M6,21H6a3,3,0,0,0,3-3V17H3v1A3,3,0,0,0,6,21Zm3-4L6,6,3,17" style="fill: none; stroke: rgb(0, 0, 0); stroke-linecap: round; stroke-linejoin: round; stroke-width: 2;"></path></svg>