<svg class="icon line" width="48" height="48" id="balance-scale-left" xmlns="http://www.w3.org/2000/svg" viewBox="0 0 24 24"><title style="stroke-width: 2; stroke: rgb(0, 0, 0);">balance scale left</title><path id="primary" d="M12,3V5m-1,.83L3.14,4.44M20.86,7.56,13,6.17M11,6a1,1,0,1,0,1-1A1,1,0,0,0,11,6ZM6,20H6a3,3,0,0,0,3-3V16H3v1A3,3,0,0,0,6,20Zm3-4L6,5,3,16m18,2V17H15v1a3,3,0,0,0,3,3h0A3,3,0,0,0,21,18Zm0-1L18,7.06,15,17" style="fill: none; stroke: rgb(0, 0, 0); stroke-linecap: round; stroke-linejoin: round; stroke-width: 2;"></path></svg>