<svg class="icon line" width="48" height="48" id="battery-cross" xmlns="http://www.w3.org/2000/svg" viewBox="0 0 24 24"><title style="stroke-width: 2; stroke: rgb(0, 0, 0);">battery cross</title><line id="primary" x1="15.5" y1="13.5" x2="12.5" y2="16.5" style="fill: none; stroke: rgb(0, 0, 0); stroke-linecap: round; stroke-linejoin: round; stroke-width: 2;"></line><line id="primary-2" data-name="primary" x1="15.5" y1="16.5" x2="12.5" y2="13.5" style="fill: none; stroke: rgb(0, 0, 0); stroke-linecap: round; stroke-linejoin: round; stroke-width: 2;"></line><path id="primary-3" data-name="primary" d="M11,5H7V3h4Zm2.28,16A.66.66,0,0,1,13,21H5a1,1,0,0,1-1-1V6A1,1,0,0,1,5,5h8a1,1,0,0,1,1,1V9m6,6a6,6,0,1,0-6,6A6,6,0,0,0,20,15Z" style="fill: none; stroke: rgb(0, 0, 0); stroke-linecap: round; stroke-linejoin: round; stroke-width: 2;"></path></svg>