<svg class="icon line" width="48" height="48" id="behance" xmlns="http://www.w3.org/2000/svg" viewBox="0 0 24 24"><title style="stroke-width: 2; stroke: rgb(0, 0, 0);">behance</title><path id="primary" d="M7,18H3V12H7a3,3,0,0,1,3,3h0A3,3,0,0,1,7,18ZM9,9H9A3,3,0,0,0,6,6H3v6H6A3,3,0,0,0,9,9Zm5,5h7v-.5A3.5,3.5,0,0,0,17.5,10h0A3.5,3.5,0,0,0,14,13.5v1A3.5,3.5,0,0,0,17.5,18a3.45,3.45,0,0,0,1.82-.52M15,14m0-8h5" style="fill: none; stroke: rgb(0, 0, 0); stroke-linecap: round; stroke-linejoin: round; stroke-width: 2;"></path></svg>