<svg class="icon line" width="48" height="48" id="birefcase" xmlns="http://www.w3.org/2000/svg" viewBox="0 0 24 24"><title style="stroke-width: 2; stroke: rgb(0, 0, 0);">birefcase</title><path id="primary" d="M16,7H8V4A1,1,0,0,1,9,3h6a1,1,0,0,1,1,1Zm5,13V8a1,1,0,0,0-1-1H4A1,1,0,0,0,3,8V20a1,1,0,0,0,1,1H20A1,1,0,0,0,21,20ZM3.18,7.43,5,11.58A4,4,0,0,0,8.64,14h6.72A4,4,0,0,0,19,11.58l1.78-4.15" style="fill: none; stroke: rgb(0, 0, 0); stroke-linecap: round; stroke-linejoin: round; stroke-width: 2;"></path></svg>