<svg class="icon line" width="48" height="48" id="brainstorming" xmlns="http://www.w3.org/2000/svg" viewBox="0 0 24 24"><title style="stroke-width: 2; stroke: rgb(0, 0, 0);">brainstorming</title><path id="primary" d="M12,5.5A2.5,2.5,0,0,1,17,5.05,2.48,2.48,0,0,1,19,7.5a2.37,2.37,0,0,1-.25,1.07A3,3,0,0,1,20,11a3,3,0,0,1-.78,2A3,3,0,0,1,17,18H17a2.94,2.94,0,0,1,.05.51,2.5,2.5,0,0,1-5,0Zm0,0a2.5,2.5,0,0,0-4.95-.45A2.48,2.48,0,0,0,5,7.5a2.37,2.37,0,0,0,.25,1.07A3,3,0,0,0,4,11a3,3,0,0,0,.78,2A3,3,0,0,0,7,18h0a2.94,2.94,0,0,0,0,.51,2.5,2.5,0,0,0,5,0Z" style="fill: none; stroke: rgb(0, 0, 0); stroke-linecap: round; stroke-linejoin: round; stroke-width: 2;"></path></svg>