<svg class="icon line" width="48" height="48" id="bug" xmlns="http://www.w3.org/2000/svg" viewBox="0 0 24 24"><title style="stroke-width: 2; stroke: rgb(0, 0, 0);">bug</title><path id="primary" d="M16,18h0A5,5,0,0,1,18.72,21V21M8,18H8A5,5,0,0,0,5.28,21V21M17,15V10a1,1,0,0,0-1-1H8a1,1,0,0,0-1,1v5a5,5,0,0,0,5,5h0A5,5,0,0,0,17,15ZM15,9H9V7a3,3,0,0,1,3-3h0a3,3,0,0,1,3,3Zm2.22-6h0A2.82,2.82,0,0,1,15.4,5.05l-.89.31m-5,0L8.6,5.05A2.82,2.82,0,0,1,6.78,3h0M21,7.1,20.47,8A5.42,5.42,0,0,1,17,10.47h0m0,3h0a5.06,5.06,0,0,1,3.65,2.31l.35.55M7,10.47H7A5.42,5.42,0,0,1,3.53,8L3,7.1m0,9.26.35-.55A5.06,5.06,0,0,1,7,13.5H7" style="fill: none; stroke: rgb(0, 0, 0); stroke-linecap: round; stroke-linejoin: round; stroke-width: 2;"></path></svg>