<svg class="icon line" width="48" height="48" id="campaign" xmlns="http://www.w3.org/2000/svg" viewBox="0 0 24 24"><path d="M19.76,16.69,9,14V6L19.76,3.31a1,1,0,0,1,1.24,1V15.72A1,1,0,0,1,19.76,16.69ZM9,6H7a4,4,0,0,0-4,4H3a4,4,0,0,0,4,4H9Z" style="fill: none; stroke: rgb(0, 0, 0); stroke-linecap: round; stroke-linejoin: round; stroke-width: 2;"></path><path d="M9,14v6a1,1,0,0,1-1,1H6.82a1,1,0,0,1-1-.8L4.41,13" style="fill: none; stroke: rgb(0, 0, 0); stroke-linecap: round; stroke-linejoin: round; stroke-width: 2;"></path></svg>