<svg class="icon line" width="48" height="48" id="cinema-projector-left" xmlns="http://www.w3.org/2000/svg" viewBox="0 0 24 24"><title style="stroke-width: 2; stroke: rgb(0, 0, 0);">cinema projector left</title><path id="primary" d="M13,19h7a1,1,0,0,0,1-1V12a1,1,0,0,0-1-1H4a1,1,0,0,0-1,1v6a1,1,0,0,0,1,1H7m0-1a3,3,0,1,1,3,3A3,3,0,0,1,7,18Zm5-9V3m2,8H10V10a1,1,0,0,1,1-1h2a1,1,0,0,1,1,1Z" style="fill: none; stroke: rgb(0, 0, 0); stroke-linecap: round; stroke-linejoin: round; stroke-width: 2;"></path></svg>