<svg class="icon line" width="48" height="48" id="clipboard-edit-2" xmlns="http://www.w3.org/2000/svg" viewBox="0 0 24 24"><title style="stroke-width: 2; stroke: rgb(0, 0, 0);">clipboard edit-2</title><path id="primary" d="M17,16v4a1,1,0,0,1-1,1H4a1,1,0,0,1-1-1V4A1,1,0,0,1,4,3H16a1,1,0,0,1,1,1v6M7,6A1,1,0,0,0,8,7h4a1,1,0,0,0,1-1V3H7Zm13.71,4.69-1.4-1.4a1,1,0,0,0-1.4,0L13,14.2V17h2.8l4.91-4.91A1,1,0,0,0,20.71,10.69Z" style="fill: none; stroke: rgb(0, 0, 0); stroke-linecap: round; stroke-linejoin: round; stroke-width: 2;"></path></svg>