<svg class="icon line" width="48" height="48" id="clipboard-edit-left-2" xmlns="http://www.w3.org/2000/svg" viewBox="0 0 24 24"><title style="stroke-width: 2; stroke: rgb(0, 0, 0);">clipboard edit left-2</title><path id="primary" d="M7,16v4a1,1,0,0,0,1,1H20a1,1,0,0,0,1-1V4a1,1,0,0,0-1-1H8A1,1,0,0,0,7,4v6M17,6a1,1,0,0,1-1,1H12a1,1,0,0,1-1-1V3h6ZM3.29,10.69l1.4-1.4a1,1,0,0,1,1.4,0L11,14.2V17H8.2L3.29,12.09A1,1,0,0,1,3.29,10.69Z" style="fill: none; stroke: rgb(0, 0, 0); stroke-linecap: round; stroke-linejoin: round; stroke-width: 2;"></path></svg>