<svg class="icon line" width="48" height="48" id="clipboard-delete-3" xmlns="http://www.w3.org/2000/svg" viewBox="0 0 24 24"><title style="stroke-width: 2; stroke: rgb(0, 0, 0);">clipboard delete-3</title><path id="primary" d="M14,6h3a1,1,0,0,1,1,1v8M8,6H5A1,1,0,0,0,4,7V20a1,1,0,0,0,1,1h7M8,17h4M8,13h6m2,6h4M13,5h0a2,2,0,0,0-2-2h0A2,2,0,0,0,9,5H9A1,1,0,0,0,8,6V8h6V6A1,1,0,0,0,13,5Z" style="fill: none; stroke: rgb(0, 0, 0); stroke-linecap: round; stroke-linejoin: round; stroke-width: 2;"></path></svg>