<svg class="icon line" width="48" height="48" id="clipboard-edit-left" xmlns="http://www.w3.org/2000/svg" viewBox="0 0 24 24"><title style="stroke-width: 2; stroke: rgb(0, 0, 0);">clipboard edit left</title><path id="primary" d="M7,10V6A1,1,0,0,1,8,5h3m6,0h3a1,1,0,0,1,1,1V20a1,1,0,0,1-1,1H8a1,1,0,0,1-1-1V16m4-9h6V4a1,1,0,0,0-1-1H12a1,1,0,0,0-1,1ZM3.29,12.09,8.2,17H11V14.2L6.09,9.29a1,1,0,0,0-1.4,0l-1.4,1.4A1,1,0,0,0,3.29,12.09Z" style="fill: none; stroke: rgb(0, 0, 0); stroke-linecap: round; stroke-linejoin: round; stroke-width: 2;"></path></svg>