<svg class="icon line" width="48" height="48" id="compact-disk-2" xmlns="http://www.w3.org/2000/svg" viewBox="0 0 24 24"><title style="stroke-width: 2; stroke: rgb(0, 0, 0);">compact disk-2</title><path id="primary" d="M21,12a9,9,0,1,1-9-9A9,9,0,0,1,21,12Zm-9-2a2,2,0,1,0,2,2A2,2,0,0,0,12,10Zm0-7a9,9,0,1,0,9,9A9,9,0,0,0,12,3Zm6.36,2.64a8.75,8.75,0,0,0-3.51-2.17L12.1,10h0A2,2,0,0,1,14,11.89h0l6.54-2.75A8.75,8.75,0,0,0,18.36,5.64ZM9.15,20.53,11.9,14h0A2,2,0,0,1,10,12.11h0L3.47,14.85a9,9,0,0,0,5.68,5.68Z" style="fill: none; stroke: rgb(0, 0, 0); stroke-linecap: round; stroke-linejoin: round; stroke-width: 2;"></path></svg>