<svg class="icon line" width="48" height="48" id="contrass" xmlns="http://www.w3.org/2000/svg" viewBox="0 0 24 24"><path d="M21.19,11.29,19,9.1V6a1,1,0,0,0-1-1H14.9L12.71,2.81a1,1,0,0,0-1.42,0L9.1,5H6A1,1,0,0,0,5,6V9.1L2.81,11.29a1,1,0,0,0,0,1.42L5,14.9V18a1,1,0,0,0,1,1H9.1l2.19,2.19a1,1,0,0,0,1.42,0L14.9,19H18a1,1,0,0,0,1-1V14.9l2.19-2.19A1,1,0,0,0,21.19,11.29Z" style="fill: none; stroke: rgb(0, 0, 0); stroke-linecap: round; stroke-linejoin: round; stroke-width: 2;"></path><path d="M12,8v8a4,4,0,0,0,0-8Z" style="fill: none; stroke: rgb(0, 0, 0); stroke-linecap: round; stroke-linejoin: round; stroke-width: 2;"></path></svg>