<svg class="icon line" width="48" height="48" id="date-alt-favorite" xmlns="http://www.w3.org/2000/svg" viewBox="0 0 24 24"><path d="M7.54,19H4a1,1,0,0,1-1-1V5A1,1,0,0,1,4,4H20a1,1,0,0,1,1,1V18a1,1,0,0,1-1,1H16.46" style="fill: none; stroke: rgb(0, 0, 0); stroke-linecap: round; stroke-linejoin: round; stroke-width: 2;"></path><line x1="16" y1="3" x2="16" y2="6" style="fill: none; stroke: rgb(0, 0, 0); stroke-linecap: round; stroke-linejoin: round; stroke-width: 2;"></line><line x1="8" y1="3" x2="8" y2="6" style="fill: none; stroke: rgb(0, 0, 0); stroke-linecap: round; stroke-linejoin: round; stroke-width: 2;"></line><circle cx="12" cy="15" r="6" style="fill: none; stroke: rgb(0, 0, 0); stroke-linecap: round; stroke-linejoin: round; stroke-width: 2;"></circle><line x1="3" y1="9" x2="21" y2="9" style="fill: none; stroke: rgb(0, 0, 0); stroke-linecap: round; stroke-linejoin: round; stroke-width: 2;"></line><path d="M14.06,14.91a1.23,1.23,0,0,0-1.89-1.55,1.18,1.18,0,0,0-.17.22,1.18,1.18,0,0,0-.17-.22,1.23,1.23,0,0,0-1.89,1.55c.05.06.09.12.15.18L12,17l1.91-1.91C14,15,14,15,14.06,14.91Z" style="fill: none; stroke: rgb(0, 0, 0); stroke-linecap: round; stroke-linejoin: round; stroke-width: 2;"></path></svg>