<svg class="icon line" width="48" height="48" id="date-alt-star" xmlns="http://www.w3.org/2000/svg" viewBox="0 0 24 24"><path d="M7.54,19H4a1,1,0,0,1-1-1V5A1,1,0,0,1,4,4H20a1,1,0,0,1,1,1V18a1,1,0,0,1-1,1H16.46" style="fill: none; stroke: rgb(0, 0, 0); stroke-linecap: round; stroke-linejoin: round; stroke-width: 2;"></path><line x1="16" y1="3" x2="16" y2="6" style="fill: none; stroke: rgb(0, 0, 0); stroke-linecap: round; stroke-linejoin: round; stroke-width: 2;"></line><line x1="8" y1="3" x2="8" y2="6" style="fill: none; stroke: rgb(0, 0, 0); stroke-linecap: round; stroke-linejoin: round; stroke-width: 2;"></line><circle cx="12" cy="15" r="6" style="fill: none; stroke: rgb(0, 0, 0); stroke-linecap: round; stroke-linejoin: round; stroke-width: 2;"></circle><line x1="3" y1="9" x2="21" y2="9" style="fill: none; stroke: rgb(0, 0, 0); stroke-linecap: round; stroke-linejoin: round; stroke-width: 2;"></line><polygon points="12 16.32 13.3 17 13.05 15.55 14.1 14.53 12.65 14.32 12 13 11.35 14.32 9.9 14.53 10.95 15.55 10.7 17 12 16.32" style="fill: none; stroke: rgb(0, 0, 0); stroke-linecap: round; stroke-linejoin: round; stroke-width: 2;"></polygon></svg>