<svg class="icon line" width="48" height="48" id="date-favorite" xmlns="http://www.w3.org/2000/svg" viewBox="0 0 24 24"><path d="M3,9H21a0,0,0,0,1,0,0V20a1,1,0,0,1-1,1H4a1,1,0,0,1-1-1V9A0,0,0,0,1,3,9Z" style="fill: none; stroke: rgb(0, 0, 0); stroke-linecap: round; stroke-linejoin: round; stroke-width: 2;"></path><path d="M4,4H20a1,1,0,0,1,1,1V9a0,0,0,0,1,0,0H3A0,0,0,0,1,3,9V5A1,1,0,0,1,4,4Z" style="fill: none; stroke: rgb(0, 0, 0); stroke-linecap: round; stroke-linejoin: round; stroke-width: 2;"></path><line x1="16" y1="3" x2="16" y2="6" style="fill: none; stroke: rgb(0, 0, 0); stroke-linecap: round; stroke-linejoin: round; stroke-width: 2;"></line><line x1="8" y1="3" x2="8" y2="6" style="fill: none; stroke: rgb(0, 0, 0); stroke-linecap: round; stroke-linejoin: round; stroke-width: 2;"></line><path d="M14.06,14.91a1.23,1.23,0,0,0-1.89-1.55,1.18,1.18,0,0,0-.17.22,1.18,1.18,0,0,0-.17-.22,1.23,1.23,0,0,0-1.89,1.55c.05.06.09.12.15.18L12,17l1.91-1.91C14,15,14,15,14.06,14.91Z" style="fill: none; stroke: rgb(0, 0, 0); stroke-linecap: round; stroke-linejoin: round; stroke-width: 2;"></path></svg>