<svg class="icon line" width="48" height="48" id="date-star" xmlns="http://www.w3.org/2000/svg" viewBox="0 0 24 24"><path d="M3,9H21a0,0,0,0,1,0,0V20a1,1,0,0,1-1,1H4a1,1,0,0,1-1-1V9A0,0,0,0,1,3,9Z" style="fill: none; stroke: rgb(0, 0, 0); stroke-linecap: round; stroke-linejoin: round; stroke-width: 2;"></path><path d="M4,4H20a1,1,0,0,1,1,1V9a0,0,0,0,1,0,0H3A0,0,0,0,1,3,9V5A1,1,0,0,1,4,4Z" style="fill: none; stroke: rgb(0, 0, 0); stroke-linecap: round; stroke-linejoin: round; stroke-width: 2;"></path><line x1="16" y1="3" x2="16" y2="6" style="fill: none; stroke: rgb(0, 0, 0); stroke-linecap: round; stroke-linejoin: round; stroke-width: 2;"></line><line x1="8" y1="3" x2="8" y2="6" style="fill: none; stroke: rgb(0, 0, 0); stroke-linecap: round; stroke-linejoin: round; stroke-width: 2;"></line><polygon points="12 16.32 13.3 17 13.05 15.55 14.1 14.53 12.65 14.32 12 13 11.35 14.32 9.9 14.53 10.95 15.55 10.7 17 12 16.32" style="fill: none; stroke: rgb(0, 0, 0); stroke-linecap: round; stroke-linejoin: round; stroke-width: 2;"></polygon></svg>