<svg class="icon line" width="48" height="48" id="delete-playlist" xmlns="http://www.w3.org/2000/svg" viewBox="0 0 24 24"><title style="stroke-width: 2; stroke: rgb(0, 0, 0);">delete playlist</title><path id="primary" d="M14,15h7m-7,4h7m-7-9a2.86,2.86,0,0,0-1-4,23.19,23.19,0,0,1-3-3V18M6.5,15A3.28,3.28,0,0,0,3,18a3.28,3.28,0,0,0,3.5,3A3.28,3.28,0,0,0,10,18,3.28,3.28,0,0,0,6.5,15Z" style="fill: none; stroke: rgb(0, 0, 0); stroke-linecap: round; stroke-linejoin: round; stroke-width: 2;"></path><line id="primary-2" data-name="primary" x1="18" y1="4.09" x2="21" y2="7.09" style="fill: none; stroke: rgb(0, 0, 0); stroke-linecap: round; stroke-linejoin: round; stroke-width: 2;"></line><line id="primary-3" data-name="primary" x1="21" y1="4.09" x2="18" y2="7.09" style="fill: none; stroke: rgb(0, 0, 0); stroke-linecap: round; stroke-linejoin: round; stroke-width: 2;"></line></svg>