<svg class="icon line" width="48" height="48" id="delete-playlist-3" xmlns="http://www.w3.org/2000/svg" viewBox="0 0 24 24"><title style="stroke-width: 2; stroke: rgb(0, 0, 0);">delete playlist-3</title><path id="primary" d="M11,12h0a4.16,4.16,0,0,1-5.62,3.89h0A3.61,3.61,0,0,1,3,12.5H3A3.61,3.61,0,0,1,5.34,9.12L9.13,7.7A2.89,2.89,0,0,0,11,5h0A2,2,0,0,0,9,3H9A2,2,0,0,0,7,5V19a2,2,0,0,1-2,2H5a2,2,0,0,1-2-2H3m12-4h6M11,19H21" style="fill: none; stroke: rgb(0, 0, 0); stroke-linecap: round; stroke-linejoin: round; stroke-width: 2;"></path><line id="primary-2" data-name="primary" x1="17" y1="4.09" x2="20" y2="7.09" style="fill: none; stroke: rgb(0, 0, 0); stroke-linecap: round; stroke-linejoin: round; stroke-width: 2;"></line><line id="primary-3" data-name="primary" x1="20" y1="4.09" x2="17" y2="7.09" style="fill: none; stroke: rgb(0, 0, 0); stroke-linecap: round; stroke-linejoin: round; stroke-width: 2;"></line></svg>