<svg class="icon line" width="48" height="48" id="discord" xmlns="http://www.w3.org/2000/svg" viewBox="0 0 24 24"><title style="stroke-width: 2; stroke: rgb(0, 0, 0);">discord</title><path id="primary" d="M9,15.77,8,19a7.25,7.25,0,0,1-5-2.33A30,30,0,0,1,4.83,6.6,1,1,0,0,1,5.43,6,23.65,23.65,0,0,1,12,5a23.65,23.65,0,0,1,6.57,1,1,1,0,0,1,.6.59A30,30,0,0,1,21,16.67,7.25,7.25,0,0,1,16,19l-1-3.23M7,15a13.38,13.38,0,0,0,5,1,13.38,13.38,0,0,0,5-1" style="fill: none; stroke: rgb(0, 0, 0); stroke-linecap: round; stroke-linejoin: round; stroke-width: 2;"></path><line id="primary-upstroke" x1="15" y1="10" x2="15" y2="10" style="fill: none; stroke: rgb(0, 0, 0); stroke-linecap: round; stroke-linejoin: round; stroke-width: 2;"></line><line id="primary-upstroke-2" data-name="primary-upstroke" x1="9" y1="10" x2="9" y2="10" style="fill: none; stroke: rgb(0, 0, 0); stroke-linecap: round; stroke-linejoin: round; stroke-width: 2;"></line></svg>