<svg class="icon line" width="48" height="48" id="dislike" xmlns="http://www.w3.org/2000/svg" viewBox="0 0 24 24"><title style="stroke-width: 2; stroke: rgb(0, 0, 0);">dislike</title><path id="primary" d="M7,15H3V3H7Zm0-1H8.62a2,2,0,0,1,1.89,1.36c.37,1.09.75,2.42,1.11,3.92A2.2,2.2,0,0,0,13.77,21h.05a2.28,2.28,0,0,0,2.29-2.23A31.13,31.13,0,0,0,16,15h3a2,2,0,0,0,1.94-2.48L19.32,6a4,4,0,0,0-3.88-3h-4.2A9.47,9.47,0,0,0,7,4H7Z" style="fill: none; stroke: rgb(0, 0, 0); stroke-linecap: round; stroke-linejoin: round; stroke-width: 2;"></path></svg>