<svg class="icon line" width="48" height="48" id="download-alt3" xmlns="http://www.w3.org/2000/svg" viewBox="0 0 24 24"><path d="M21,13v7a1,1,0,0,1-1,1H4a1,1,0,0,1-1-1V13H8a4,4,0,0,0,8,0Zm0,0L18.23,4.68A1,1,0,0,0,17.28,4H16M8,4H6.72a1,1,0,0,0-1,.68L3,13" style="fill: none; stroke: rgb(0, 0, 0); stroke-linecap: round; stroke-linejoin: round; stroke-width: 2;"></path><path d="M12,3v8M9,8l3,3,3-3" style="fill: none; stroke: rgb(0, 0, 0); stroke-linecap: round; stroke-linejoin: round; stroke-width: 2;"></path></svg>