<svg class="icon line" width="48" height="48" id="drawing-tablet-pencil" xmlns="http://www.w3.org/2000/svg" viewBox="0 0 24 24"><title style="stroke-width: 2; stroke: rgb(0, 0, 0);">drawing tablet pencil</title><path id="primary" d="M17,8h3a1,1,0,0,1,1,1V20a1,1,0,0,1-1,1H4a1,1,0,0,1-1-1V9A1,1,0,0,1,4,8h7M4,8A1,1,0,0,0,3,9V20a1,1,0,0,0,1,1H7V8ZM18.71,4.69l-1.4-1.4a1,1,0,0,0-1.4,0L11,8.2V11h2.8l4.91-4.91A1,1,0,0,0,18.71,4.69Z" style="fill: none; stroke: rgb(0, 0, 0); stroke-linecap: round; stroke-linejoin: round; stroke-width: 2;"></path></svg>