<svg class="icon line" width="48" height="48" id="drawing-tablet" xmlns="http://www.w3.org/2000/svg" viewBox="0 0 24 24"><title style="stroke-width: 2; stroke: rgb(0, 0, 0);">drawing tablet</title><path id="primary" d="M11,8h9a1,1,0,0,1,1,1V20a1,1,0,0,1-1,1H4a1,1,0,0,1-1-1V9A1,1,0,0,1,4,8H7M17,8V21h3a1,1,0,0,0,1-1V9a1,1,0,0,0-1-1ZM7,4v7l2,2,2-2V4a1,1,0,0,0-1-1H8A1,1,0,0,0,7,4Z" style="fill: none; stroke: rgb(0, 0, 0); stroke-linecap: round; stroke-linejoin: round; stroke-width: 2;"></path></svg>