<svg class="icon line" width="48" height="48" id="drawing-tablet-right" xmlns="http://www.w3.org/2000/svg" viewBox="0 0 24 24"><title style="stroke-width: 2; stroke: rgb(0, 0, 0);">drawing tablet right</title><path id="primary" d="M17,8h3a1,1,0,0,1,1,1V20a1,1,0,0,1-1,1H4a1,1,0,0,1-1-1V9A1,1,0,0,1,4,8h9M4,8A1,1,0,0,0,3,9V20a1,1,0,0,0,1,1H7V8ZM16,3H14a1,1,0,0,0-1,1v7l2,2,2-2V4A1,1,0,0,0,16,3Z" style="fill: none; stroke: rgb(0, 0, 0); stroke-linecap: round; stroke-linejoin: round; stroke-width: 2;"></path></svg>