<svg class="icon line" width="48" height="48" id="dribbble" xmlns="http://www.w3.org/2000/svg" viewBox="0 0 24 24"><title style="stroke-width: 2; stroke: rgb(0, 0, 0);">dribbble</title><path id="primary" d="M8.8,3.59c2.86,2.94,6.3,7.85,8.05,16M3.24,9.91a18.3,18.3,0,0,0,7.2-.48,18.21,18.21,0,0,0,2.16-.71,16.85,16.85,0,0,0,5.46-3.37M21,12.8a13.07,13.07,0,0,0-10.14,1.31,14.32,14.32,0,0,0-5,4.45M12,3a9,9,0,1,0,9,9A9,9,0,0,0,12,3Z" style="fill: none; stroke: rgb(0, 0, 0); stroke-linecap: round; stroke-linejoin: round; stroke-width: 2;"></path></svg>