<svg class="icon line" width="48" height="48" id="earphone" xmlns="http://www.w3.org/2000/svg" viewBox="0 0 24 24"><path d="M7,9H5A1,1,0,0,1,4,8V4A1,1,0,0,1,5,3H7a3,3,0,0,1,3,3h0A3,3,0,0,1,7,9ZM6,21V9" style="fill: none; stroke: rgb(0, 0, 0); stroke-linecap: round; stroke-linejoin: round; stroke-width: 2;"></path><path d="M14,6h0a3,3,0,0,1,3-3h2a1,1,0,0,1,1,1V8a1,1,0,0,1-1,1H17A3,3,0,0,1,14,6Zm4,3V21" style="fill: none; stroke: rgb(0, 0, 0); stroke-linecap: round; stroke-linejoin: round; stroke-width: 2;"></path></svg>