<svg class="icon line" width="48" height="48" id="email-file" xmlns="http://www.w3.org/2000/svg" viewBox="0 0 24 24"><title style="stroke-width: 2; stroke: rgb(0, 0, 0);">email file </title><path id="primary" d="M12.55,14.63,19.45,10a1,1,0,0,1,1.55.83V20a1,1,0,0,1-1,1H4a1,1,0,0,1-1-1V10.87A1,1,0,0,1,4.55,10l6.9,4.59A1,1,0,0,0,12.55,14.63ZM16,3V5h2ZM11.45,14.63a1,1,0,0,0,1.1,0L18,11V5L16,3H7A1,1,0,0,0,6,4v7Z" style="fill: none; stroke: rgb(0, 0, 0); stroke-linecap: round; stroke-linejoin: round; stroke-width: 2;"></path></svg>