<svg class="icon line" width="48" height="48" id="eye" xmlns="http://www.w3.org/2000/svg" viewBox="0 0 24 24"><path d="M19,12s-3.13,4-7,4-7-4-7-4,3.13-4,7-4S19,12,19,12Z" style="fill: none; stroke: rgb(0, 0, 0); stroke-linecap: round; stroke-linejoin: round; stroke-width: 2;"></path><path d="M3,7V4A1,1,0,0,1,4,3H7" style="fill: none; stroke: rgb(0, 0, 0); stroke-linecap: round; stroke-linejoin: round; stroke-width: 2;"></path><path d="M21,7V4a1,1,0,0,0-1-1H17" style="fill: none; stroke: rgb(0, 0, 0); stroke-linecap: round; stroke-linejoin: round; stroke-width: 2;"></path><path d="M3,17v3a1,1,0,0,0,1,1H7" style="fill: none; stroke: rgb(0, 0, 0); stroke-linecap: round; stroke-linejoin: round; stroke-width: 2;"></path><path d="M21,17v3a1,1,0,0,1-1,1H17" style="fill: none; stroke: rgb(0, 0, 0); stroke-linecap: round; stroke-linejoin: round; stroke-width: 2;"></path><circle cx="12" cy="12" r="2" style="fill: none; stroke: rgb(0, 0, 0); stroke-linecap: round; stroke-linejoin: round; stroke-width: 2;"></circle></svg>