<svg class="icon line" width="48" height="48" id="face-time-circle" xmlns="http://www.w3.org/2000/svg" viewBox="0 0 24 24"><title style="stroke-width: 2; stroke: rgb(0, 0, 0);">FaceTime circle</title><path id="primary" d="M21,12a9,9,0,1,1-9-9A9,9,0,0,1,21,12Zm-8,2V10a1,1,0,0,0-1-1H8a1,1,0,0,0-1,1v4a1,1,0,0,0,1,1h4A1,1,0,0,0,13,14Zm0-1,2.55,1.28a1,1,0,0,0,1.45-.9V10.62a1,1,0,0,0-1.45-.9L13,11Z" style="fill: none; stroke: rgb(0, 0, 0); stroke-linecap: round; stroke-linejoin: round; stroke-width: 2;"></path></svg>