<svg class="icon line" width="48" height="48" id="figma" xmlns="http://www.w3.org/2000/svg" viewBox="0 0 24 24"><title style="stroke-width: 2; stroke: rgb(0, 0, 0);">figma</title><path id="primary" d="M15,9H9A3,3,0,0,1,6,6H6A3,3,0,0,1,9,3h6a3,3,0,0,1,3,3h0A3,3,0,0,1,15,9ZM12,3H9A3,3,0,0,0,6,6H6A3,3,0,0,0,9,9h3Zm0,6H9a3,3,0,0,0-3,3H6a3,3,0,0,0,3,3h3Zm3,6h0a3,3,0,0,0,3-3h0a3,3,0,0,0-3-3h0a3,3,0,0,0-3,3h0A3,3,0,0,0,15,15Zm-3,0H9a3,3,0,0,0-3,3H6a3,3,0,0,0,3,3h3Z" style="fill: none; stroke: rgb(0, 0, 0); stroke-linecap: round; stroke-linejoin: round; stroke-width: 2;"></path></svg>