<svg class="icon line" width="48" height="48" id="file-edit" xmlns="http://www.w3.org/2000/svg" viewBox="0 0 24 24"><path d="M8,20H4a1,1,0,0,1-1-1V4A1,1,0,0,1,4,3h8.59a1,1,0,0,1,.7.29l3.42,3.42a1,1,0,0,1,.29.7V9" style="fill: none; stroke: rgb(0, 0, 0); stroke-linecap: round; stroke-linejoin: round; stroke-width: 2;"></path><path d="M15.05,21H12.22V18.17l5.66-5.66a1,1,0,0,1,1.41,0l1.42,1.42a1,1,0,0,1,0,1.41Z" style="fill: none; stroke: rgb(0, 0, 0); stroke-linecap: round; stroke-linejoin: round; stroke-width: 2;"></path></svg>