<svg class="icon line" width="48" height="48" id="folder-edit" xmlns="http://www.w3.org/2000/svg" viewBox="0 0 24 24"><path d="M15.05,21H12.22V18.17l5.66-5.66a1,1,0,0,1,1.41,0l1.42,1.42a1,1,0,0,1,0,1.41Z" style="fill: none; stroke: rgb(0, 0, 0); stroke-linecap: round; stroke-linejoin: round; stroke-width: 2;"></path><path d="M21,9V7a1,1,0,0,0-1-1H12.83a1,1,0,0,1-.71-.29L9.71,3.29A1,1,0,0,0,9,3H4A1,1,0,0,0,3,4V17a1,1,0,0,0,1,1H8" style="fill: none; stroke: rgb(0, 0, 0); stroke-linecap: round; stroke-linejoin: round; stroke-width: 2;"></path></svg>