<svg class="icon line" width="48" height="48" id="folder-favorite" xmlns="http://www.w3.org/2000/svg" viewBox="0 0 24 24"><path d="M21,9V7a1,1,0,0,0-1-1H12.83a1,1,0,0,1-.71-.29L9.71,3.29A1,1,0,0,0,9,3H4A1,1,0,0,0,3,4V17a1,1,0,0,0,1,1H8" style="fill: none; stroke: rgb(0, 0, 0); stroke-linecap: round; stroke-linejoin: round; stroke-width: 2;"></path><path d="M16.84,13.72l-.34.34-.34-.34a2.43,2.43,0,0,0-3.45,0,2.47,2.47,0,0,0,0,3.47l1,1L16.5,21l2.75-2.77,1-1a2.47,2.47,0,0,0,0-3.47A2.43,2.43,0,0,0,16.84,13.72Z" style="fill: none; stroke: rgb(0, 0, 0); stroke-linecap: round; stroke-linejoin: round; stroke-width: 2;"></path></svg>