<svg class="icon line" width="48" height="48" id="game-consol" xmlns="http://www.w3.org/2000/svg" viewBox="0 0 24 24"><title style="stroke-width: 2; stroke: rgb(0, 0, 0);">game consol</title><path id="primary" d="M16.43,5a4,4,0,0,1,4,3.72l.57,8A2.12,2.12,0,0,1,18.76,19a2.24,2.24,0,0,1-2-1.82L16,13.79a1,1,0,0,0-1-.79H8.94a1,1,0,0,0-1,.79l-.73,3.39a2.24,2.24,0,0,1-2,1.82A2.12,2.12,0,0,1,3,16.72l.57-8A4,4,0,0,1,7.57,5ZM15,5H9l.5,2h5Z" style="fill: none; stroke: rgb(0, 0, 0); stroke-linecap: round; stroke-linejoin: round; stroke-width: 2;"></path></svg>