<svg class="icon line" width="48" height="48" id="gift" xmlns="http://www.w3.org/2000/svg" viewBox="0 0 24 24"><rect x="3" y="6" width="18" height="4" rx="1" style="fill: none; stroke: rgb(0, 0, 0); stroke-linecap: round; stroke-linejoin: round; stroke-width: 2;"></rect><path d="M4,10H20a0,0,0,0,1,0,0v8a1,1,0,0,1-1,1H5a1,1,0,0,1-1-1V10A0,0,0,0,1,4,10Z" style="fill: none; stroke: rgb(0, 0, 0); stroke-linecap: round; stroke-linejoin: round; stroke-width: 2;"></path><path d="M8,3a5.36,5.36,0,0,1,4,3" style="fill: none; stroke: rgb(0, 0, 0); stroke-linecap: round; stroke-linejoin: round; stroke-width: 2;"></path><path d="M16,3a5.36,5.36,0,0,0-4,3" style="fill: none; stroke: rgb(0, 0, 0); stroke-linecap: round; stroke-linejoin: round; stroke-width: 2;"></path><line x1="12" y1="19" x2="12" y2="6" style="fill: none; stroke: rgb(0, 0, 0); stroke-linecap: round; stroke-linejoin: round; stroke-width: 2;"></line></svg>