<svg class="icon line" width="48" height="48" id="gumroad" xmlns="http://www.w3.org/2000/svg" viewBox="0 0 24 24"><title style="stroke-width: 2; stroke: rgb(0, 0, 0);">gumroad</title><path id="primary" d="M20,4H4A1,1,0,0,0,3,5V20a1,1,0,0,0,1,1H20a1,1,0,0,0,1-1V11a1,1,0,0,0-1-1H10a1,1,0,0,0-1,1v4a1,1,0,0,0,1,1h5" style="fill: none; stroke: rgb(0, 0, 0); stroke-linecap: round; stroke-linejoin: round; stroke-width: 2;"></path><line id="primary-upstroke" x1="20" y1="4" x2="20" y2="4" style="fill: none; stroke: rgb(0, 0, 0); stroke-linecap: round; stroke-linejoin: round; stroke-width: 2;"></line><line id="primary-upstroke-2" data-name="primary-upstroke" x1="15" y1="16" x2="15" y2="16" style="fill: none; stroke: rgb(0, 0, 0); stroke-linecap: round; stroke-linejoin: round; stroke-width: 2;"></line></svg>