<svg class="icon line" width="48" height="48" id="hang-up" xmlns="http://www.w3.org/2000/svg" viewBox="0 0 24 24"><path d="M5.68,15,3.59,12.9a1.48,1.48,0,0,1,.16-2.28,13.61,13.61,0,0,1,16.63,0,1.48,1.48,0,0,1,.16,2.28L18.45,15a.75.75,0,0,1-1,.06,8.24,8.24,0,0,0-2.55-1.49.74.74,0,0,1-.45-.9l.2-.72A.78.78,0,0,0,14,11a10.44,10.44,0,0,0-3.94,0,.77.77,0,0,0-.6.95l.2.72a.74.74,0,0,1-.46.9,8.36,8.36,0,0,0-2.55,1.49A.74.74,0,0,1,5.68,15Z" style="fill: none; stroke: rgb(0, 0, 0); stroke-linecap: round; stroke-linejoin: round; stroke-width: 2;"></path></svg>