<svg class="icon line" width="48" height="48" id="headset-alt" xmlns="http://www.w3.org/2000/svg" viewBox="0 0 24 24"><path d="M4,14V13a3,3,0,0,1,3-3H8a1,1,0,0,1,1,1v5a1,1,0,0,1-1,1H7A3,3,0,0,1,4,14Zm16,0V13a3,3,0,0,0-3-3H16a1,1,0,0,0-1,1v5a1,1,0,0,0,1,1h1A3,3,0,0,0,20,14Zm0,0,.19-2A8.23,8.23,0,0,0,12,3h0a8.23,8.23,0,0,0-8.19,9L4,14" style="fill: none; stroke: rgb(0, 0, 0); stroke-linecap: round; stroke-linejoin: round; stroke-width: 2;"></path><path d="M17,17v1a1.89,1.89,0,0,1-1.75,2H12" style="fill: none; stroke: rgb(0, 0, 0); stroke-linecap: round; stroke-linejoin: round; stroke-width: 2;"></path></svg>