<svg class="icon line" width="48" height="48" id="home-telephone" xmlns="http://www.w3.org/2000/svg" viewBox="0 0 24 24"><title style="stroke-width: 2; stroke: rgb(0, 0, 0);">home telephone</title><path id="primary" d="M3,16V5A1,1,0,0,1,4,4H15V17H4A1,1,0,0,1,3,16Zm6,1v3a1,1,0,0,0,1,1h7a1,1,0,0,0,1-1V18m-2,0h4a1,1,0,0,0,1-1V4a1,1,0,0,0-1-1H16a1,1,0,0,0-1,1V17A1,1,0,0,0,16,18ZM11,8H7" style="fill: none; stroke: rgb(0, 0, 0); stroke-linecap: round; stroke-linejoin: round; stroke-width: 2;"></path></svg>