<svg class="icon line" width="48" height="48" id="inbox" xmlns="http://www.w3.org/2000/svg" viewBox="0 0 24 24"><title style="stroke-width: 2; stroke: rgb(0, 0, 0);">inbox</title><path id="primary" d="M8.28,15.55l.44.9a1,1,0,0,0,.9.55h4.76a1,1,0,0,0,.9-.55l.44-.9a1,1,0,0,1,.9-.55H20v5a1,1,0,0,1-1,1H5a1,1,0,0,1-1-1V15H7.38A1,1,0,0,1,8.28,15.55ZM8,5H5A1,1,0,0,0,4,6v9H7.38a1,1,0,0,1,.9.55l.44.9a1,1,0,0,0,.9.55h4.76a1,1,0,0,0,.9-.55l.44-.9a1,1,0,0,1,.9-.55H20V6a1,1,0,0,0-1-1H16M12,3v9M9,9l3,3,3-3" style="fill: none; stroke: rgb(0, 0, 0); stroke-linecap: round; stroke-linejoin: round; stroke-width: 2;"></path></svg>