<svg class="icon line" width="48" height="48" id="investment-dollar" xmlns="http://www.w3.org/2000/svg" viewBox="0 0 24 24"><title style="stroke-width: 2; stroke: rgb(0, 0, 0);">investment dollar</title><path id="primary" d="M20,6a3.43,3.43,0,0,1-3-.35c-1.27-.71-4.08-.57-4.08-.57m0,0L13.5,3h-3l.56,2.08M12,21a14.43,14.43,0,0,0,4.19-.57A4,4,0,0,0,19,16.61h0a11.29,11.29,0,0,0-.46-3.16L17.15,8.83A5.38,5.38,0,0,0,12,5h0A5.38,5.38,0,0,0,6.85,8.83L5.46,13.45A11.29,11.29,0,0,0,5,16.61H5a4,4,0,0,0,2.81,3.82A14.43,14.43,0,0,0,12,21Zm2-11H11.5A1.5,1.5,0,0,0,10,11.5h0A1.5,1.5,0,0,0,11.5,13h1A1.5,1.5,0,0,1,14,14.5h0A1.5,1.5,0,0,1,12.5,16H10m2-6V9m0,8V16" style="fill: none; stroke: rgb(0, 0, 0); stroke-linecap: round; stroke-linejoin: round; stroke-width: 2;"></path></svg>