<svg class="icon line" width="48" height="48" id="jack-connector_1" xmlns="http://www.w3.org/2000/svg" viewBox="0 0 24 24"><title style="stroke-width: 2; stroke: rgb(0, 0, 0);">jack connector_1</title><path id="primary" d="M10,5V9H6V5L8,3Zm1,9V10a1,1,0,0,0-1-1H6a1,1,0,0,0-1,1v4a3,3,0,0,0,3,3H8A3,3,0,0,0,11,14Zm8,4V8a2,2,0,0,0-2-2h0a2,2,0,0,0-2,2v9.5A3.5,3.5,0,0,1,11.5,21h0A3.5,3.5,0,0,1,8,17.5V17" style="fill: none; stroke: rgb(0, 0, 0); stroke-linecap: round; stroke-linejoin: round; stroke-width: 2;"></path></svg>