<svg class="icon line" width="48" height="48" id="jack-connector-top-left" xmlns="http://www.w3.org/2000/svg" viewBox="0 0 24 24"><title style="stroke-width: 2; stroke: rgb(0, 0, 0);">jack connector top left</title><path id="primary" d="M5.83,8l3.51,3.51L6.52,14.34,3,10.83V8Zm7.78,10.56h0a3,3,0,0,0,0-4.24l-2.83-2.83a1,1,0,0,0-1.41,0L6.54,14.32a1,1,0,0,0,0,1.41l2.83,2.83A3,3,0,0,0,13.61,18.56Zm.16.16L15,20A3.51,3.51,0,0,0,20,20h0a3.49,3.49,0,0,0,0-5L11.36,6.41a2,2,0,0,1,0-2.82h0a2,2,0,0,1,2.83,0L18,7.4" style="fill: none; stroke: rgb(0, 0, 0); stroke-linecap: round; stroke-linejoin: round; stroke-width: 2;"></path></svg>