<svg class="icon line" width="48" height="48" id="joystick-controller" xmlns="http://www.w3.org/2000/svg" viewBox="0 0 24 24"><title style="stroke-width: 2; stroke: rgb(0, 0, 0);">joystick controller</title><path id="primary" d="M19,21H5V18a1,1,0,0,1,1-1H18a1,1,0,0,1,1,1ZM9.7,5.12A48.44,48.44,0,0,0,10,15h4a48.44,48.44,0,0,0,.3-9.88A2.32,2.32,0,0,0,12,3h0A2.32,2.32,0,0,0,9.7,5.12ZM15,16a1,1,0,0,0-1-1H10a1,1,0,0,0-1,1v1h6Z" style="fill: none; stroke: rgb(0, 0, 0); stroke-linecap: round; stroke-linejoin: round; stroke-width: 2;"></path></svg>