<svg class="icon line" width="48" height="48" id="launch" xmlns="http://www.w3.org/2000/svg" viewBox="0 0 24 24"><path d="M15,21H9L7.77,13a10,10,0,0,1,2.81-8.59l.71-.71a1,1,0,0,1,1.42,0l.71.71A10,10,0,0,1,16.23,13Z" style="fill: none; stroke: rgb(0, 0, 0); stroke-linecap: round; stroke-linejoin: round; stroke-width: 2;"></path><path d="M9,21H5l.81-3.25a2,2,0,0,1,.83-1.18l1.52-1" style="fill: none; stroke: rgb(0, 0, 0); stroke-linecap: round; stroke-linejoin: round; stroke-width: 2;"></path><path d="M15.84,15.56l1.52,1a2,2,0,0,1,.83,1.18L19,21H15" style="fill: none; stroke: rgb(0, 0, 0); stroke-linecap: round; stroke-linejoin: round; stroke-width: 2;"></path><line x1="12" y1="10" x2="12" y2="13" style="fill: none; stroke: rgb(0, 0, 0); stroke-linecap: round; stroke-linejoin: round; stroke-width: 2;"></line></svg>