<svg class="icon line" width="48" height="48" id="left-alt-circle" xmlns="http://www.w3.org/2000/svg" viewBox="0 0 24 24"><path d="M3,12a9,9,0,1,0,9-9A9,9,0,0,0,3,12Zm9-2.59V10h4a1,1,0,0,1,1,1v2a1,1,0,0,1-1,1H12v.59a1,1,0,0,1-1.71.7L7.71,12.71a1,1,0,0,1,0-1.42l2.58-2.58A1,1,0,0,1,12,9.41Z" style="fill: none; stroke: rgb(0, 0, 0); stroke-linecap: round; stroke-linejoin: round; stroke-width: 2;"></path><path d="M12,9.41V10h4a1,1,0,0,1,1,1v2a1,1,0,0,1-1,1H12v.59a1,1,0,0,1-1.71.7L7.71,12.71a1,1,0,0,1,0-1.42l2.58-2.58A1,1,0,0,1,12,9.41Z" style="fill: none; stroke: rgb(0, 0, 0); stroke-linecap: round; stroke-linejoin: round; stroke-width: 2;"></path></svg>