<svg class="icon line" width="48" height="48" id="link-alt3" xmlns="http://www.w3.org/2000/svg" viewBox="0 0 24 24"><path d="M10,9A1,1,0,0,0,9,8H4A1,1,0,0,0,3,9v6a1,1,0,0,0,1,1H9a1,1,0,0,0,1-1" style="fill: none; stroke: rgb(0, 0, 0); stroke-linecap: round; stroke-linejoin: round; stroke-width: 2;"></path><path d="M14,15a1,1,0,0,0,1,1h5a1,1,0,0,0,1-1V9a1,1,0,0,0-1-1H15a1,1,0,0,0-1,1" style="fill: none; stroke: rgb(0, 0, 0); stroke-linecap: round; stroke-linejoin: round; stroke-width: 2;"></path><line x1="8" y1="12" x2="16" y2="12" style="fill: none; stroke: rgb(0, 0, 0); stroke-linecap: round; stroke-linejoin: round; stroke-width: 2;"></line></svg>