<svg class="icon line" width="48" height="48" id="link-alt4" xmlns="http://www.w3.org/2000/svg" viewBox="0 0 24 24"><path d="M10,9A1,1,0,0,0,9,8H7a4,4,0,0,0-4,4H3a4,4,0,0,0,4,4H9a1,1,0,0,0,1-1" style="fill: none; stroke: rgb(0, 0, 0); stroke-linecap: round; stroke-linejoin: round; stroke-width: 2;"></path><path d="M14,15a1,1,0,0,0,1,1h2a4,4,0,0,0,4-4h0a4,4,0,0,0-4-4H15a1,1,0,0,0-1,1" style="fill: none; stroke: rgb(0, 0, 0); stroke-linecap: round; stroke-linejoin: round; stroke-width: 2;"></path><line x1="8" y1="12" x2="16" y2="12" style="fill: none; stroke: rgb(0, 0, 0); stroke-linecap: round; stroke-linejoin: round; stroke-width: 2;"></line></svg>