<svg class="icon line" width="48" height="48" id="love-playlist-2" xmlns="http://www.w3.org/2000/svg" viewBox="0 0 24 24"><title style="stroke-width: 2; stroke: rgb(0, 0, 0);">love playlist-2</title><path id="primary" d="M10,18a3.28,3.28,0,0,1-3.5,3A3.28,3.28,0,0,1,3,18a3.28,3.28,0,0,1,3.5-3A3.28,3.28,0,0,1,10,18Zm0,0V3m4,12h7m-7,4h7M19.12,4.56,19,4.68l-.12-.12a.81.81,0,0,0-1.15,0h0a.82.82,0,0,0,0,1.16l.33.34L19,7l.92-.93.33-.33a.82.82,0,0,0-1.14-1.18Z" style="fill: none; stroke: rgb(0, 0, 0); stroke-linecap: round; stroke-linejoin: round; stroke-width: 2;"></path></svg>