<svg class="icon line" width="48" height="48" id="love-playlist-3" xmlns="http://www.w3.org/2000/svg" viewBox="0 0 24 24"><title style="stroke-width: 2; stroke: rgb(0, 0, 0);">love playlist-3</title><path id="primary" d="M11,12h0a4.16,4.16,0,0,1-5.62,3.89h0A3.61,3.61,0,0,1,3,12.5H3A3.61,3.61,0,0,1,5.34,9.12L9.13,7.7A2.89,2.89,0,0,0,11,5h0A2,2,0,0,0,9,3H9A2,2,0,0,0,7,5V19a2,2,0,0,1-2,2H5a2,2,0,0,1-2-2H3m12-4h6m-6-4-4,8H21M19.12,4.56,19,4.68l-.12-.12a.81.81,0,0,0-1.15,0h0a.82.82,0,0,0,0,1.16l.33.34L19,7l.92-.93.33-.33a.82.82,0,0,0-1.14-1.18Z" style="fill: none; stroke: rgb(0, 0, 0); stroke-linecap: round; stroke-linejoin: round; stroke-width: 2;"></path></svg>