<svg class="icon line" width="48" height="48" id="maps-location-place-right" xmlns="http://www.w3.org/2000/svg" viewBox="0 0 24 24"><title style="stroke-width: 2; stroke: rgb(0, 0, 0);">maps location place right</title><path id="primary" d="M19,9h1a1,1,0,0,1,1,1V20a1,1,0,0,1-1,1H4a1,1,0,0,1-1-1V10A1,1,0,0,1,4,9h8M8,17l3-8m10,8H3m12,4V17M19,6.5a3.5,3.5,0,0,0-7,0C12,10,15.5,13,15.5,13S19,10,19,6.5Z" style="fill: none; stroke: rgb(0, 0, 0); stroke-linecap: round; stroke-linejoin: round; stroke-width: 2;"></path></svg>