<svg class="icon line" width="48" height="48" id="microphone-music-2" xmlns="http://www.w3.org/2000/svg" viewBox="0 0 24 24"><title style="stroke-width: 2; stroke: rgb(0, 0, 0);">microphone music-2</title><path id="primary" d="M12.65,16a4,4,0,0,1-3.5.91A4.33,4.33,0,0,1,6,12.85V7.17A4.13,4.13,0,0,1,9.17,3.08,4,4,0,0,1,12,3.54M10,17v4m4,0H6M14,8a2,2,0,1,0,2,2A2,2,0,0,0,14,8Zm5-1a2.9,2.9,0,0,0-3-3v6" style="fill: none; stroke: rgb(0, 0, 0); stroke-linecap: round; stroke-linejoin: round; stroke-width: 2;"></path></svg>