<svg class="icon line" width="48" height="48" id="minimize-size" xmlns="http://www.w3.org/2000/svg" viewBox="0 0 24 24"><path d="M4,15H8a1,1,0,0,1,1,1v4m-.29-4.71L3,21" style="fill: none; stroke: rgb(0, 0, 0); stroke-linecap: round; stroke-linejoin: round; stroke-width: 2;"></path><path d="M9,4V8A1,1,0,0,1,8,9H4m4.71-.29L3,3" style="fill: none; stroke: rgb(0, 0, 0); stroke-linecap: round; stroke-linejoin: round; stroke-width: 2;"></path><path d="M15,20V16a1,1,0,0,1,1-1h4m1,6-5.71-5.71" style="fill: none; stroke: rgb(0, 0, 0); stroke-linecap: round; stroke-linejoin: round; stroke-width: 2;"></path><path d="M20,9H16a1,1,0,0,1-1-1V4m6-1L15.29,8.71" style="fill: none; stroke: rgb(0, 0, 0); stroke-linecap: round; stroke-linejoin: round; stroke-width: 2;"></path></svg>