<svg class="icon line" width="48" height="48" id="money-dollar" xmlns="http://www.w3.org/2000/svg" viewBox="0 0 24 24"><title style="stroke-width: 2; stroke: rgb(0, 0, 0);">money dollar</title><path id="primary" d="M21,19H3V5H21ZM21,5H17a4,4,0,0,0,4,4h0ZM3,9H3A4,4,0,0,0,7,5H3Zm18,6h0a4,4,0,0,0-4,4h4ZM3,19H7a4,4,0,0,0-4-4H3ZM14,9H11.5A1.5,1.5,0,0,0,10,10.5h0A1.5,1.5,0,0,0,11.5,12h1A1.5,1.5,0,0,1,14,13.5h0A1.5,1.5,0,0,1,12.5,15H10m2-6V8m0,8V15" style="fill: none; stroke: rgb(0, 0, 0); stroke-linecap: round; stroke-linejoin: round; stroke-width: 2;"></path></svg>