<svg class="icon line" width="48" height="48" id="money-euro" xmlns="http://www.w3.org/2000/svg" viewBox="0 0 24 24"><title style="stroke-width: 2; stroke: rgb(0, 0, 0);">money euro</title><path id="primary" d="M8,12h3M21,5H3V19H21ZM15,8.77m-1,1A3,3,0,0,0,12,9h0a3,3,0,0,0-3,3H9a3,3,0,0,0,3,3h0a3,3,0,0,0,2-.77M21,5H17a4,4,0,0,0,4,4h0ZM3,9H3A4,4,0,0,0,7,5H3Zm18,6h0a4,4,0,0,0-4,4h4ZM3,19H7a4,4,0,0,0-4-4H3Z" style="fill: none; stroke: rgb(0, 0, 0); stroke-linecap: round; stroke-linejoin: round; stroke-width: 2;"></path></svg>