<svg class="icon line" width="48" height="48" id="music-folder-10" xmlns="http://www.w3.org/2000/svg" viewBox="0 0 24 24"><title style="stroke-width: 2; stroke: rgb(0, 0, 0);">music folder-10</title><path id="primary" d="M10,19H4a1,1,0,0,1-1-1.29l2.4-8A1,1,0,0,1,6.4,9H20M3,17.71l2.4-8A1,1,0,0,1,6.4,9H18V6a1,1,0,0,0-1-1H9L7,3H4A1,1,0,0,0,3,4V18s0,0,0,0A.89.89,0,0,1,3,17.71ZM16,17a2,2,0,1,0,2,2A2,2,0,0,0,16,17Zm5-1a2.9,2.9,0,0,0-3-3v6" style="fill: none; stroke: rgb(0, 0, 0); stroke-linecap: round; stroke-linejoin: round; stroke-width: 2;"></path></svg>