<svg class="icon line" width="48" height="48" id="note-edit" xmlns="http://www.w3.org/2000/svg" viewBox="0 0 24 24"><path d="M18,4a1,1,0,0,1,1,1V20a1,1,0,0,1-1,1H6a1,1,0,0,1-1-1V5A1,1,0,0,1,6,4" style="fill: none; stroke: rgb(0, 0, 0); stroke-linecap: round; stroke-linejoin: round; stroke-width: 2;"></path><rect x="9" y="3" width="6" height="3" rx="1" style="fill: none; stroke: rgb(0, 0, 0); stroke-linecap: round; stroke-linejoin: round; stroke-width: 2;"></rect><path d="M11.15,15.47l-2.48.36L9,13.35l3.18-3.18a1.51,1.51,0,0,1,2.12,0h0a1.51,1.51,0,0,1,0,2.12Z" style="fill: none; stroke: rgb(0, 0, 0); stroke-linecap: round; stroke-linejoin: round; stroke-width: 2;"></path></svg>