<svg class="icon line" width="48" height="48" id="notification-circle" xmlns="http://www.w3.org/2000/svg" viewBox="0 0 24 24"><title style="stroke-width: 2; stroke: rgb(0, 0, 0);">notification circle</title><path id="primary" d="M18,8.82A1.09,1.09,0,0,1,18,9v4l1.38,1.38A2.12,2.12,0,0,1,17.88,18H6.12a2.12,2.12,0,0,1-1.5-3.62L6,13V9a6,6,0,0,1,9-5.21M15,18H9a3,3,0,0,0,3,3h0A3,3,0,0,0,15,18ZM14,6a3,3,0,0,0,3,3h0a3,3,0,0,0,3-3h0a3,3,0,0,0-3-3h0a3,3,0,0,0-3,3Z" style="fill: none; stroke: rgb(0, 0, 0); stroke-linecap: round; stroke-linejoin: round; stroke-width: 2;"></path></svg>