<svg class="icon line" width="48" height="48" id="notification-circle-left" xmlns="http://www.w3.org/2000/svg" viewBox="0 0 24 24"><title style="stroke-width: 2; stroke: rgb(0, 0, 0);">notification circle left</title><path id="primary" d="M9,3.79A6,6,0,0,1,18,9v4l1.38,1.38A2.12,2.12,0,0,1,17.88,18H6.12a2.12,2.12,0,0,1-1.5-3.62L6,13V9a1.09,1.09,0,0,1,0-.18M15,18H9a3,3,0,0,0,3,3h0A3,3,0,0,0,15,18ZM10,6A3,3,0,0,0,7,3H7A3,3,0,0,0,4,6H4A3,3,0,0,0,7,9H7a3,3,0,0,0,3-3Z" style="fill: none; stroke: rgb(0, 0, 0); stroke-linecap: round; stroke-linejoin: round; stroke-width: 2;"></path></svg>