<svg class="icon line" width="48" height="48" id="pinterest-square" xmlns="http://www.w3.org/2000/svg" viewBox="0 0 24 24"><title style="stroke-width: 2; stroke: rgb(0, 0, 0);">pinterest square</title><path id="primary" d="M20,21H4a1,1,0,0,1-1-1V4A1,1,0,0,1,4,3H20a1,1,0,0,1,1,1V20A1,1,0,0,1,20,21ZM11.28,11l-.88,6m.52-3.51a2.83,2.83,0,0,0,1.17.43,3.37,3.37,0,0,0,3.79-2.08c.54-1.77-.76-3.81-2.9-4.56s-4.32.07-4.86,1.83a3,3,0,0,0-.11,1" style="fill: none; stroke: rgb(0, 0, 0); stroke-linecap: round; stroke-linejoin: round; stroke-width: 2;"></path></svg>