<svg class="icon line" width="48" height="48" id="podcast" xmlns="http://www.w3.org/2000/svg" viewBox="0 0 24 24"><title style="stroke-width: 2; stroke: rgb(0, 0, 0);">podcast</title><path id="primary" d="M12,13a3,3,0,1,1,3-3A3,3,0,0,1,12,13Zm6,.56A6.84,6.84,0,0,0,19,10,7,7,0,0,0,5,10a6.84,6.84,0,0,0,1,3.56M15,10a3,3,0,1,0-3,3A3,3,0,0,0,15,10ZM9.76,15.49l.48,4.61a1,1,0,0,0,1,.9h1.54a1,1,0,0,0,1-.9l.48-4.61A2.25,2.25,0,0,0,12,13h0A2.25,2.25,0,0,0,9.76,15.49Z" style="fill: none; stroke: rgb(0, 0, 0); stroke-linecap: round; stroke-linejoin: round; stroke-width: 2;"></path></svg>