<svg class="icon line" width="48" height="48" id="portfolio" xmlns="http://www.w3.org/2000/svg" viewBox="0 0 24 24"><title style="stroke-width: 2; stroke: rgb(0, 0, 0);">portfolio</title><path id="primary" d="M20,12v8a1,1,0,0,1-1,1H5a1,1,0,0,1-1-1V12M16,4a1,1,0,0,0-1-1H9A1,1,0,0,0,8,4V7h8ZM13,14h2.88A5.12,5.12,0,0,0,21,8.88V8a1,1,0,0,0-1-1H4A1,1,0,0,0,3,8v.88A5.12,5.12,0,0,0,8.12,14H11m2-1H11v2h2Z" style="fill: none; stroke: rgb(0, 0, 0); stroke-linecap: round; stroke-linejoin: round; stroke-width: 2;"></path></svg>