<svg class="icon line" width="48" height="48" id="present-low" xmlns="http://www.w3.org/2000/svg" viewBox="0 0 24 24"><path d="M4,4H20a0,0,0,0,1,0,0V16a1,1,0,0,1-1,1H5a1,1,0,0,1-1-1V4A0,0,0,0,1,4,4Z" style="fill: none; stroke: rgb(0, 0, 0); stroke-linecap: round; stroke-linejoin: round; stroke-width: 2;"></path><line x1="3" y1="4" x2="21" y2="4" style="fill: none; stroke: rgb(0, 0, 0); stroke-linecap: round; stroke-linejoin: round; stroke-width: 2;"></line><line x1="10.4" y1="17" x2="8" y2="20" style="fill: none; stroke: rgb(0, 0, 0); stroke-linecap: round; stroke-linejoin: round; stroke-width: 2;"></line><line x1="13.6" y1="17" x2="16" y2="20" style="fill: none; stroke: rgb(0, 0, 0); stroke-linecap: round; stroke-linejoin: round; stroke-width: 2;"></line><path d="M16,12c-4-1-6-2-8-4" style="fill: none; stroke: rgb(0, 0, 0); stroke-linecap: round; stroke-linejoin: round; stroke-width: 2;"></path><polyline points="15 9 16 12 14 14" style="fill: none; stroke: rgb(0, 0, 0); stroke-linecap: round; stroke-linejoin: round; stroke-width: 2;"></polyline></svg>