<svg class="icon line" width="48" height="48" id="print-alt4" xmlns="http://www.w3.org/2000/svg" viewBox="0 0 24 24"><path d="M17,15h3a1,1,0,0,0,1-1V4a1,1,0,0,0-1-1H4A1,1,0,0,0,3,4V14a1,1,0,0,0,1,1H7" style="fill: none; stroke: rgb(0, 0, 0); stroke-linecap: round; stroke-linejoin: round; stroke-width: 2;"></path><path d="M7,11H17a0,0,0,0,1,0,0v9a1,1,0,0,1-1,1H8a1,1,0,0,1-1-1V11A0,0,0,0,1,7,11Z" style="fill: none; stroke: rgb(0, 0, 0); stroke-linecap: round; stroke-linejoin: round; stroke-width: 2;"></path><line x1="17" y1="7" x2="15" y2="7" style="fill: none; stroke: rgb(0, 0, 0); stroke-linecap: round; stroke-linejoin: round; stroke-width: 2;"></line><line x1="11" y1="15" x2="13" y2="15" style="fill: none; stroke: rgb(0, 0, 0); stroke-linecap: round; stroke-linejoin: round; stroke-width: 2;"></line></svg>