<svg class="icon line" width="48" height="48" id="print" xmlns="http://www.w3.org/2000/svg" viewBox="0 0 24 24"><path d="M17,17h3a1,1,0,0,0,1-1V8a1,1,0,0,0-1-1H4A1,1,0,0,0,3,8v8a1,1,0,0,0,1,1H7" style="fill: none; stroke: rgb(0, 0, 0); stroke-linecap: round; stroke-linejoin: round; stroke-width: 2;"></path><path d="M8,3h8a1,1,0,0,1,1,1V7a0,0,0,0,1,0,0H7A0,0,0,0,1,7,7V4A1,1,0,0,1,8,3Z" style="fill: none; stroke: rgb(0, 0, 0); stroke-linecap: round; stroke-linejoin: round; stroke-width: 2;"></path><path d="M7,12H17a0,0,0,0,1,0,0v8a1,1,0,0,1-1,1H8a1,1,0,0,1-1-1V12A0,0,0,0,1,7,12Z" style="fill: none; stroke: rgb(0, 0, 0); stroke-linecap: round; stroke-linejoin: round; stroke-width: 2;"></path></svg>