<svg class="icon line" width="48" height="48" id="print-alt5" xmlns="http://www.w3.org/2000/svg" viewBox="0 0 24 24"><path d="M18,17h2a1,1,0,0,0,1-1V7a1,1,0,0,0-1-1H4A1,1,0,0,0,3,7v9a1,1,0,0,0,1,1H6" style="fill: none; stroke: rgb(0, 0, 0); stroke-linecap: round; stroke-linejoin: round; stroke-width: 2;"></path><rect x="6" y="14" width="12" height="7" style="fill: none; stroke: rgb(0, 0, 0); stroke-linecap: round; stroke-linejoin: round; stroke-width: 2;"></rect><line x1="17" y1="10" x2="15" y2="10" style="fill: none; stroke: rgb(0, 0, 0); stroke-linecap: round; stroke-linejoin: round; stroke-width: 2;"></line><path d="M8,3h8a1,1,0,0,1,1,1V6a0,0,0,0,1,0,0H7A0,0,0,0,1,7,6V4A1,1,0,0,1,8,3Z" style="fill: none; stroke: rgb(0, 0, 0); stroke-linecap: round; stroke-linejoin: round; stroke-width: 2;"></path></svg>