<svg class="icon line" width="48" height="48" id="print-alt" xmlns="http://www.w3.org/2000/svg" viewBox="0 0 24 24"><path d="M8,3h8a1,1,0,0,1,1,1V7a0,0,0,0,1,0,0H7A0,0,0,0,1,7,7V4A1,1,0,0,1,8,3Z" style="fill: none; stroke: rgb(0, 0, 0); stroke-linecap: round; stroke-linejoin: round; stroke-width: 2;"></path><polyline points="17 15 21 15 21 7 3 7 3 15 7 15" style="fill: none; stroke: rgb(0, 0, 0); stroke-linecap: round; stroke-linejoin: round; stroke-width: 2;"></polyline><path d="M17,11v7l-3,3H8a1,1,0,0,1-1-1V11Z" style="fill: none; stroke: rgb(0, 0, 0); stroke-linecap: round; stroke-linejoin: round; stroke-width: 2;"></path></svg>