<svg class="icon line" width="48" height="48" id="reddit" xmlns="http://www.w3.org/2000/svg" viewBox="0 0 24 24"><title style="stroke-width: 2; stroke: rgb(0, 0, 0);">reddit</title><line id="primary-upstroke" x1="18" y1="4" x2="18" y2="4" style="fill: none; stroke: rgb(0, 0, 0); stroke-linecap: round; stroke-linejoin: round; stroke-width: 2;"></line><path id="primary" d="M12,9l2-6,4,1m3,7a3,3,0,0,0-5.56-1.54,13.09,13.09,0,0,0-6.88,0A3,3,0,0,0,3,11a2.92,2.92,0,0,0,.63,1.81A4.31,4.31,0,0,0,3,15c0,3.31,4,6,9,6s9-2.69,9-6a4.31,4.31,0,0,0-.63-2.19A2.92,2.92,0,0,0,21,11Z" style="fill: none; stroke: rgb(0, 0, 0); stroke-linecap: round; stroke-linejoin: round; stroke-width: 2;"></path><line id="primary-upstroke-2" data-name="primary-upstroke" x1="8.5" y1="14" x2="8.5" y2="14" style="fill: none; stroke: rgb(0, 0, 0); stroke-linecap: round; stroke-linejoin: round; stroke-width: 2;"></line><line id="primary-upstroke-3" data-name="primary-upstroke" x1="15.5" y1="14" x2="15.5" y2="14" style="fill: none; stroke: rgb(0, 0, 0); stroke-linecap: round; stroke-linejoin: round; stroke-width: 2;"></line></svg>