<svg class="icon line" width="48" height="48" id="right-alt-circle" xmlns="http://www.w3.org/2000/svg" viewBox="0 0 24 24"><path d="M21,12a9,9,0,1,0-9,9A9,9,0,0,0,21,12Zm-9,2.59V14H8a1,1,0,0,1-1-1V11a1,1,0,0,1,1-1h4V9.41a1,1,0,0,1,1.71-.7l2.58,2.58a1,1,0,0,1,0,1.42l-2.58,2.58A1,1,0,0,1,12,14.59Z" style="fill: none; stroke: rgb(0, 0, 0); stroke-linecap: round; stroke-linejoin: round; stroke-width: 2;"></path><path d="M12,14.59V14H8a1,1,0,0,1-1-1V11a1,1,0,0,1,1-1h4V9.41a1,1,0,0,1,1.71-.7l2.58,2.58a1,1,0,0,1,0,1.42l-2.58,2.58A1,1,0,0,1,12,14.59Z" style="fill: none; stroke: rgb(0, 0, 0); stroke-linecap: round; stroke-linejoin: round; stroke-width: 2;"></path></svg>