<svg class="icon line" width="48" height="48" id="roadmap" xmlns="http://www.w3.org/2000/svg" viewBox="0 0 24 24"><title style="stroke-width: 2; stroke: rgb(0, 0, 0);">roadmap</title><path id="primary" d="M14,7H10A1,1,0,0,1,9,6V4a1,1,0,0,1,1-1h4a1,1,0,0,1,1,1V6A1,1,0,0,1,14,7Zm7,13V18a1,1,0,0,0-1-1H18a1,1,0,0,0-1,1v2a1,1,0,0,0,1,1h2A1,1,0,0,0,21,20ZM7,20V18a1,1,0,0,0-1-1H4a1,1,0,0,0-1,1v2a1,1,0,0,0,1,1H6A1,1,0,0,0,7,20Zm7,0V18a1,1,0,0,0-1-1H11a1,1,0,0,0-1,1v2a1,1,0,0,0,1,1h2A1,1,0,0,0,14,20ZM12,7V17m7,0V12H5v5" style="fill: none; stroke: rgb(0, 0, 0); stroke-linecap: round; stroke-linejoin: round; stroke-width: 2;"></path></svg>