<svg class="icon line" width="48" height="48" id="roadmap-3" xmlns="http://www.w3.org/2000/svg" viewBox="0 0 24 24"><title style="stroke-width: 2; stroke: rgb(0, 0, 0);">roadmap-3</title><path id="primary" d="M15,14h4v3M15,6V4a1,1,0,0,0-1-1H10A1,1,0,0,0,9,4V6a1,1,0,0,0,1,1h4A1,1,0,0,0,15,6Zm6,14V18a1,1,0,0,0-1-1H18a1,1,0,0,0-1,1v2a1,1,0,0,0,1,1h2A1,1,0,0,0,21,20ZM9,14H5v3M4,21H6a1,1,0,0,0,1-1V18a1,1,0,0,0-1-1H4a1,1,0,0,0-1,1v2A1,1,0,0,0,4,21Zm8.71-4.88,1.41-1.41a1,1,0,0,0,0-1.42l-1.41-1.41a1,1,0,0,0-1.42,0L9.88,13.29a1,1,0,0,0,0,1.42l1.41,1.41A1,1,0,0,0,12.71,16.12ZM12,7v4" style="fill: none; stroke: rgb(0, 0, 0); stroke-linecap: round; stroke-linejoin: round; stroke-width: 2;"></path></svg>