<svg class="icon line" width="48" height="48" id="roadmap-2" xmlns="http://www.w3.org/2000/svg" viewBox="0 0 24 24"><title style="stroke-width: 2; stroke: rgb(0, 0, 0);">roadmap-2</title><path id="primary" d="M14,14h5v3m-9-3H5v3M15,6V4a1,1,0,0,0-1-1H10A1,1,0,0,0,9,4V6a1,1,0,0,0,1,1h4A1,1,0,0,0,15,6Zm6,14V18a1,1,0,0,0-1-1H18a1,1,0,0,0-1,1v2a1,1,0,0,0,1,1h2A1,1,0,0,0,21,20ZM7,20V18a1,1,0,0,0-1-1H4a1,1,0,0,0-1,1v2a1,1,0,0,0,1,1H6A1,1,0,0,0,7,20Zm7-5V13a1,1,0,0,0-1-1H11a1,1,0,0,0-1,1v2a1,1,0,0,0,1,1h2A1,1,0,0,0,14,15ZM12,7v5" style="fill: none; stroke: rgb(0, 0, 0); stroke-linecap: round; stroke-linejoin: round; stroke-width: 2;"></path></svg>