<svg class="icon line" width="48" height="48" id="rocket-right" xmlns="http://www.w3.org/2000/svg" viewBox="0 0 24 24"><title style="stroke-width: 2; stroke: rgb(0, 0, 0);">rocket right</title><path id="primary" d="M15.84,14.18A5.92,5.92,0,0,1,14.32,21L11.5,18.18h0m-1.67-10A5.92,5.92,0,0,0,3,9.68L5.82,12.5h0m4.86,6.28c8-5.81,9.88-12,10.3-14.64A1,1,0,0,0,19.85,3C17.24,3.43,11,5.27,5.21,13.31Zm-2,.8,1.42-1.42L5.83,13.92,4.41,15.34a1,1,0,0,0,0,1.41l2.84,2.84A1,1,0,0,0,8.66,19.59Z" style="fill: none; stroke: rgb(0, 0, 0); stroke-linecap: round; stroke-linejoin: round; stroke-width: 2;"></path></svg>