<svg class="icon line" width="48" height="48" id="rocket" xmlns="http://www.w3.org/2000/svg" viewBox="0 0 24 24"><title style="stroke-width: 2; stroke: rgb(0, 0, 0);">rocket</title><path id="primary" d="M15.87,11A5.89,5.89,0,0,1,20,17H16M8.13,11A5.89,5.89,0,0,0,4,17H8m7.87,1C16.74,8,14,4.36,12.65,3.24a1,1,0,0,0-1.3,0C10,4.36,7.26,8,8.13,18ZM15,20V18H9v2a1,1,0,0,0,1,1h4A1,1,0,0,0,15,20Z" style="fill: none; stroke: rgb(0, 0, 0); stroke-linecap: round; stroke-linejoin: round; stroke-width: 2;"></path></svg>