<svg class="icon line" width="48" height="48" id="security-camera" xmlns="http://www.w3.org/2000/svg" viewBox="0 0 24 24"><title style="stroke-width: 2; stroke: rgb(0, 0, 0);">security camera</title><path id="primary" d="M20,9H4A1,1,0,0,1,3,8V5H21V8A1,1,0,0,1,20,9Zm-1,3V9H5v3a7,7,0,0,0,7,7h0A7,7,0,0,0,19,12Zm-7,7a6.94,6.94,0,0,0,2.78-.57L14.28,15A2.3,2.3,0,0,0,12,13h0a2.3,2.3,0,0,0-2.28,2l-.5,3.45A6.94,6.94,0,0,0,12,19Z" style="fill: none; stroke: rgb(0, 0, 0); stroke-linecap: round; stroke-linejoin: round; stroke-width: 2;"></path></svg>