<svg class="icon line" width="48" height="48" id="shuffle-circle" xmlns="http://www.w3.org/2000/svg" viewBox="0 0 24 24"><title style="stroke-width: 2; stroke: rgb(0, 0, 0);">shuffle circle</title><path id="primary" d="M14.5,7.5,16,9l-1.5,1.5M16,9H14a2.77,2.77,0,0,0-2.63,1.9l-.74,2.2A2.77,2.77,0,0,1,8,15H8m6.5,1.5L16,15l-1.5-1.5M8,9H8a2.77,2.77,0,0,1,2.63,1.9l.74,2.2A2.77,2.77,0,0,0,14,15h2M12,3a9,9,0,1,0,9,9A9,9,0,0,0,12,3Z" style="fill: none; stroke: rgb(0, 0, 0); stroke-linecap: round; stroke-linejoin: round; stroke-width: 2;"></path></svg>