<svg class="icon line" width="48" height="48" id="shuffle-square" xmlns="http://www.w3.org/2000/svg" viewBox="0 0 24 24"><title style="stroke-width: 2; stroke: rgb(0, 0, 0);">shuffle square</title><path id="primary" d="M15.5,6.5,17,8,15.5,9.5M17,8H15a3.43,3.43,0,0,0-3,1.74l-2,3.52A3.43,3.43,0,0,1,7,15H7" style="fill: none; stroke: rgb(0, 0, 0); stroke-linecap: round; stroke-linejoin: round; stroke-width: 2;"></path><path id="primary-2" data-name="primary" d="M20,21H4a1,1,0,0,1-1-1V4A1,1,0,0,1,4,3H20a1,1,0,0,1,1,1V20A1,1,0,0,1,20,21Zm-4.5-3.5L17,16l-1.5-1.5M7,9H7a3.43,3.43,0,0,1,3,1.74l2,3.52A3.43,3.43,0,0,0,15,16h2" style="fill: none; stroke: rgb(0, 0, 0); stroke-linecap: round; stroke-linejoin: round; stroke-width: 2;"></path></svg>