<svg class="icon line" width="48" height="48" id="skype-circle" xmlns="http://www.w3.org/2000/svg" viewBox="0 0 24 24"><title style="stroke-width: 2; stroke: rgb(0, 0, 0);">skype circle</title><path id="primary" d="M21,12a9,9,0,1,1-9-9A9,9,0,0,1,21,12Zm-5.51.67a3.62,3.62,0,0,0,.07-.67A3.57,3.57,0,0,0,12,8.44a3.62,3.62,0,0,0-.67.07A2,2,0,0,0,10,8a2,2,0,0,0-2,2,2,2,0,0,0,.51,1.33,3.62,3.62,0,0,0-.07.67A3.57,3.57,0,0,0,12,15.56a3.62,3.62,0,0,0,.67-.07A2,2,0,0,0,14,16a2,2,0,0,0,2-2A2,2,0,0,0,15.49,12.67Z" style="fill: none; stroke: rgb(0, 0, 0); stroke-linecap: round; stroke-linejoin: round; stroke-width: 2;"></path></svg>