<svg class="icon line" width="48" height="48" id="skype" xmlns="http://www.w3.org/2000/svg" viewBox="0 0 24 24"><title style="stroke-width: 2; stroke: rgb(0, 0, 0);">skype</title><path id="primary" d="M14.59,9a2,2,0,0,0-1.73-1H11.14a2,2,0,0,0-2,2,2,2,0,0,0,2,2h1.72a2,2,0,0,1,2,2,2,2,0,0,1-2,2H11.14a2,2,0,0,1-1.73-1m10.44-1.48A7.61,7.61,0,0,0,20,12a8,8,0,0,0-8-8,7.61,7.61,0,0,0-1.52.15A4.44,4.44,0,0,0,7.5,3,4.51,4.51,0,0,0,3,7.5a4.44,4.44,0,0,0,1.15,3A7.61,7.61,0,0,0,4,12a8,8,0,0,0,8,8,7.61,7.61,0,0,0,1.52-.15,4.44,4.44,0,0,0,3,1.15A4.51,4.51,0,0,0,21,16.5,4.44,4.44,0,0,0,19.85,13.52Z" style="fill: none; stroke: rgb(0, 0, 0); stroke-linecap: round; stroke-linejoin: round; stroke-width: 2;"></path></svg>