<svg class="icon line" width="48" height="48" id="skype-square" xmlns="http://www.w3.org/2000/svg" viewBox="0 0 24 24"><title style="stroke-width: 2; stroke: rgb(0, 0, 0);">skype square</title><path id="primary" d="M20,21H4a1,1,0,0,1-1-1V4A1,1,0,0,1,4,3H20a1,1,0,0,1,1,1V20A1,1,0,0,1,20,21Zm-3.64-8.16a4.6,4.6,0,0,0,.08-.84A4.44,4.44,0,0,0,12,7.56a4.6,4.6,0,0,0-.84.08,2.49,2.49,0,0,0-3.52,3.52,4.6,4.6,0,0,0-.08.84A4.44,4.44,0,0,0,12,16.44a4.6,4.6,0,0,0,.84-.08,2.49,2.49,0,0,0,3.52-3.52Z" style="fill: none; stroke: rgb(0, 0, 0); stroke-linecap: round; stroke-linejoin: round; stroke-width: 2;"></path></svg>