<svg class="icon line" width="48" height="48" id="smart-watch-circle" xmlns="http://www.w3.org/2000/svg" viewBox="0 0 24 24"><title style="stroke-width: 2; stroke: rgb(0, 0, 0);">smart watch circle</title><path id="primary" d="M17,12a5,5,0,1,1-5-5A5,5,0,0,1,17,12ZM12,7a5,5,0,0,1,4,2V4a1,1,0,0,0-1-1H9A1,1,0,0,0,8,4V9A5,5,0,0,1,12,7ZM8,15v5a1,1,0,0,0,1,1h6a1,1,0,0,0,1-1V15a5,5,0,0,1-8,0Z" style="fill: none; stroke: rgb(0, 0, 0); stroke-linecap: round; stroke-linejoin: round; stroke-width: 2;"></path></svg>