<svg class="icon line" width="48" height="48" id="smart-watch-circle-heart" xmlns="http://www.w3.org/2000/svg" viewBox="0 0 24 24"><title style="stroke-width: 2; stroke: rgb(0, 0, 0);">smart watch circle heart</title><path id="primary" d="M13.26,10.92a.82.82,0,0,1,0,1.16l-.33.33-.92.93-.94-.94-.33-.34a.82.82,0,0,1,0-1.16h0a.81.81,0,0,1,1.15,0L12,11l.11-.12A.81.81,0,0,1,13.26,10.92ZM4.5,12A7.5,7.5,0,1,0,12,4.5,7.5,7.5,0,0,0,4.5,12ZM16,5.66V3H8V5.66a7.48,7.48,0,0,1,8,0ZM8,18.34V21h8V18.34a7.48,7.48,0,0,1-8,0Z" style="fill: none; stroke: rgb(0, 0, 0); stroke-linecap: round; stroke-linejoin: round; stroke-width: 2;"></path></svg>