<svg class="icon line" width="48" height="48" id="smart-watch-heart" xmlns="http://www.w3.org/2000/svg" viewBox="0 0 24 24"><title style="stroke-width: 2; stroke: rgb(0, 0, 0);">smart watch heart</title><path id="primary" d="M13.26,10.92a.82.82,0,0,1,0,1.16l-.33.33-.92.93-.94-.94-.33-.34a.82.82,0,0,1,0-1.16h0a.81.81,0,0,1,1.15,0L12,11l.11-.12A.81.81,0,0,1,13.26,10.92ZM8,3V5h8V3Zm8,18V19H8v2ZM7,19H17a1,1,0,0,0,1-1V6a1,1,0,0,0-1-1H7A1,1,0,0,0,6,6V18A1,1,0,0,0,7,19Z" style="fill: none; stroke: rgb(0, 0, 0); stroke-linecap: round; stroke-linejoin: round; stroke-width: 2;"></path></svg>