<svg class="icon line" width="48" height="48" id="spotify-square" xmlns="http://www.w3.org/2000/svg" viewBox="0 0 24 24"><title style="stroke-width: 2; stroke: rgb(0, 0, 0);">spotify square</title><path id="primary" d="M20,21H4a1,1,0,0,1-1-1V4A1,1,0,0,1,4,3H20a1,1,0,0,1,1,1V20A1,1,0,0,1,20,21Zm-3.11-9.12A7.51,7.51,0,0,0,9.68,7.42m4.51,6.73a5.74,5.74,0,0,0-5.11-3.22m2.49,5.66a3.76,3.76,0,0,0-3.17-2" style="fill: none; stroke: rgb(0, 0, 0); stroke-linecap: round; stroke-linejoin: round; stroke-width: 2;"></path></svg>