<svg class="icon line" width="48" height="48" id="sticky-notes-7" xmlns="http://www.w3.org/2000/svg" viewBox="0 0 24 24"><title style="stroke-width: 2; stroke: rgb(0, 0, 0);">sticky notes-7</title><path id="primary" d="M17,7v9a1,1,0,0,1-1,1H4a1,1,0,0,1-1-1V7A1,1,0,0,1,4,6H16M5,21H17a4,4,0,0,0,4-4V10M20,5a2,2,0,0,0-2-2h0a2,2,0,0,0-2,2h0a2,2,0,0,0,2,2h0a2,2,0,0,0,2-2ZM16.59,6.41,14,9" style="fill: none; stroke: rgb(0, 0, 0); stroke-linecap: round; stroke-linejoin: round; stroke-width: 2;"></path></svg>