<svg class="icon line" width="48" height="48" id="sticky-notes-5" xmlns="http://www.w3.org/2000/svg" viewBox="0 0 24 24"><title style="stroke-width: 2; stroke: rgb(0, 0, 0);">sticky notes-5</title><path id="primary" d="M8,6H20a1,1,0,0,1,1,1v9a1,1,0,0,1-1,1H8a1,1,0,0,1-1-1V7M3,10v7a4,4,0,0,0,4,4H19M4,5A2,2,0,0,0,6,7H6A2,2,0,0,0,8,5H8A2,2,0,0,0,6,3H6A2,2,0,0,0,4,5Zm6,4L7.41,6.41" style="fill: none; stroke: rgb(0, 0, 0); stroke-linecap: round; stroke-linejoin: round; stroke-width: 2;"></path></svg>