<svg class="icon line" width="48" height="48" id="suitcase-bag" xmlns="http://www.w3.org/2000/svg" viewBox="0 0 24 24"><path d="M20.32,14.23l-4.53,1.51a12,12,0,0,1-7.58,0L3.68,14.23a1,1,0,0,1-.68-1V7H21v6.28A1,1,0,0,1,20.32,14.23Z" style="fill: none; stroke: rgb(0, 0, 0); stroke-linecap: round; stroke-linejoin: round; stroke-width: 2;"></path><path d="M19.83,14.39l-.72,5.73a1,1,0,0,1-1,.88H5.88a1,1,0,0,1-1-.88l-.72-5.73" style="fill: none; stroke: rgb(0, 0, 0); stroke-linecap: round; stroke-linejoin: round; stroke-width: 2;"></path><line x1="11" y1="12" x2="13" y2="12" style="fill: none; stroke: rgb(0, 0, 0); stroke-linecap: round; stroke-linejoin: round; stroke-width: 2;"></line><path d="M10,3h4a3,3,0,0,1,3,3V7a0,0,0,0,1,0,0H7A0,0,0,0,1,7,7V6A3,3,0,0,1,10,3Z" style="fill: none; stroke: rgb(0, 0, 0); stroke-linecap: round; stroke-linejoin: round; stroke-width: 2;"></path></svg>