<svg class="icon line" width="48" height="48" id="surveillance-camera-left" xmlns="http://www.w3.org/2000/svg" viewBox="0 0 24 24"><title style="stroke-width: 2; stroke: rgb(0, 0, 0);">surveillance camera left</title><path id="primary" d="M21,17v4m-8-8,4,6h4M7,9H20a1,1,0,0,0,1-1V4a1,1,0,0,0-1-1H5ZM19,9H7v3a1,1,0,0,0,1,1H18a1,1,0,0,0,1-1ZM3,7V9a1,1,0,0,0,1,1H7V9L6,6H4A1,1,0,0,0,3,7Z" style="fill: none; stroke: rgb(0, 0, 0); stroke-linecap: round; stroke-linejoin: round; stroke-width: 2;"></path></svg>