<svg class="icon line" width="48" height="48" id="ticket" xmlns="http://www.w3.org/2000/svg" viewBox="0 0 24 24"><path d="M18,12a3,3,0,0,0,3,3v3a1,1,0,0,1-1,1H4a1,1,0,0,1-1-1V15A3,3,0,0,0,3,9V6A1,1,0,0,1,4,5H20a1,1,0,0,1,1,1V9A3,3,0,0,0,18,12Z" style="fill: none; stroke: rgb(0, 0, 0); stroke-linecap: round; stroke-linejoin: round; stroke-width: 2;"></path><line x1="10" y1="5" x2="10" y2="7" style="fill: none; stroke: rgb(0, 0, 0); stroke-linecap: round; stroke-linejoin: round; stroke-width: 2;"></line><line x1="10" y1="17" x2="10" y2="19" style="fill: none; stroke: rgb(0, 0, 0); stroke-linecap: round; stroke-linejoin: round; stroke-width: 2;"></line><line x1="10" y1="13" x2="10" y2="11" style="fill: none; stroke: rgb(0, 0, 0); stroke-linecap: round; stroke-linejoin: round; stroke-width: 2;"></line></svg>