<svg class="icon line" width="48" height="48" id="tinder-square" xmlns="http://www.w3.org/2000/svg" viewBox="0 0 24 24"><title style="stroke-width: 2; stroke: rgb(0, 0, 0);">tinder square</title><path id="primary" d="M20,21H4a1,1,0,0,1-1-1V4A1,1,0,0,1,4,3H20a1,1,0,0,1,1,1V20A1,1,0,0,1,20,21Zm-9.14-9A3.84,3.84,0,0,1,9.71,9.78,3.84,3.84,0,0,0,8,12.92C8,16.09,10,17,12,17c2.37,0,4-1.3,4-4.08A6.44,6.44,0,0,0,12,7C12.57,9.78,12,11.26,10.86,12Z" style="fill: none; stroke: rgb(0, 0, 0); stroke-linecap: round; stroke-linejoin: round; stroke-width: 2;"></path></svg>