<svg class="icon line" width="48" height="48" id="torch-bottom-left" xmlns="http://www.w3.org/2000/svg" viewBox="0 0 24 24"><title style="stroke-width: 2; stroke: rgb(0, 0, 0);">torch bottom left</title><path id="primary" d="M7.54,19.29h0a2,2,0,0,1-2.83,0h0a2,2,0,0,1,0-2.83h0ZM9,20.71a1,1,0,0,0,1.41,0l.71-.71c.71-.71.71-2.12.44-3.27h0l9.2-9.19a1,1,0,0,0,0-1.42L17.88,3.29a1,1,0,0,0-1.42,0l-9.19,9.2h0c-1.15-.27-2.56-.27-3.27.44l-.71.71a1,1,0,0,0,0,1.41Z" style="fill: none; stroke: rgb(0, 0, 0); stroke-linecap: round; stroke-linejoin: round; stroke-width: 2;"></path></svg>