<svg class="icon line" width="48" height="48" id="torch-bottom-right" xmlns="http://www.w3.org/2000/svg" viewBox="0 0 24 24"><title style="stroke-width: 2; stroke: rgb(0, 0, 0);">torch bottom right</title><path id="primary" d="M19.29,16.46h0a2,2,0,0,1,0,2.83h0a2,2,0,0,1-2.83,0h0Zm1.42-1.41a1,1,0,0,0,0-1.41L20,12.93c-.71-.71-2.12-.71-3.27-.44h0L7.54,3.29a1,1,0,0,0-1.42,0L3.29,6.12a1,1,0,0,0,0,1.42l9.2,9.19h0c-.27,1.15-.27,2.56.44,3.27l.71.71a1,1,0,0,0,1.41,0Z" style="fill: none; stroke: rgb(0, 0, 0); stroke-linecap: round; stroke-linejoin: round; stroke-width: 2;"></path></svg>