<svg class="icon line" width="48" height="48" id="unlink-alt" xmlns="http://www.w3.org/2000/svg" viewBox="0 0 24 24"><path d="M10,12a1,1,0,0,0-1-1H4a1,1,0,0,0-1,1v6a1,1,0,0,0,1,1H9a1,1,0,0,0,1-1" style="fill: none; stroke: rgb(0, 0, 0); stroke-linecap: round; stroke-linejoin: round; stroke-width: 2;"></path><path d="M14,12a1,1,0,0,0,1,1h5a1,1,0,0,0,1-1V6a1,1,0,0,0-1-1H15a1,1,0,0,0-1,1" style="fill: none; stroke: rgb(0, 0, 0); stroke-linecap: round; stroke-linejoin: round; stroke-width: 2;"></path><line x1="8" y1="15" x2="10" y2="15" style="fill: none; stroke: rgb(0, 0, 0); stroke-linecap: round; stroke-linejoin: round; stroke-width: 2;"></line><line x1="14" y1="9" x2="16" y2="9" style="fill: none; stroke: rgb(0, 0, 0); stroke-linecap: round; stroke-linejoin: round; stroke-width: 2;"></line></svg>