<svg class="icon line" width="48" height="48" id="unlink-alt4" xmlns="http://www.w3.org/2000/svg" viewBox="0 0 24 24"><path d="M10,9A1,1,0,0,0,9,8H4A1,1,0,0,0,3,9v6a1,1,0,0,0,1,1H9a1,1,0,0,0,1-1" style="fill: none; stroke: rgb(0, 0, 0); stroke-linecap: round; stroke-linejoin: round; stroke-width: 2;"></path><path d="M14,15a1,1,0,0,0,1,1h5a1,1,0,0,0,1-1V9a1,1,0,0,0-1-1H15a1,1,0,0,0-1,1" style="fill: none; stroke: rgb(0, 0, 0); stroke-linecap: round; stroke-linejoin: round; stroke-width: 2;"></path><line x1="8" y1="12" x2="16" y2="12" style="fill: none; stroke: rgb(0, 0, 0); stroke-linecap: round; stroke-linejoin: round; stroke-width: 2;"></line><line x1="12" y1="4" x2="12" y2="3" style="fill: none; stroke: rgb(0, 0, 0); stroke-linecap: round; stroke-linejoin: round; stroke-width: 2;"></line><line x1="9" y1="5" x2="8" y2="4" style="fill: none; stroke: rgb(0, 0, 0); stroke-linecap: round; stroke-linejoin: round; stroke-width: 2;"></line><line x1="15" y1="5" x2="16" y2="4" style="fill: none; stroke: rgb(0, 0, 0); stroke-linecap: round; stroke-linejoin: round; stroke-width: 2;"></line><line x1="12" y1="20" x2="12" y2="21" style="fill: none; stroke: rgb(0, 0, 0); stroke-linecap: round; stroke-linejoin: round; stroke-width: 2;"></line><line x1="9" y1="19" x2="8" y2="20" style="fill: none; stroke: rgb(0, 0, 0); stroke-linecap: round; stroke-linejoin: round; stroke-width: 2;"></line><line x1="15" y1="19" x2="16" y2="20" style="fill: none; stroke: rgb(0, 0, 0); stroke-linecap: round; stroke-linejoin: round; stroke-width: 2;"></line></svg>