<svg class="icon line" width="48" height="48" id="unlink-alt3" xmlns="http://www.w3.org/2000/svg" viewBox="0 0 24 24"><path d="M12.5,16.5l-3,3a3.54,3.54,0,0,1-5,0h0a3.54,3.54,0,0,1,0-5l3-3" style="fill: none; stroke: rgb(0, 0, 0); stroke-linecap: round; stroke-linejoin: round; stroke-width: 2;"></path><path d="M12,7l3-3a3.54,3.54,0,0,1,5,0h0a3.54,3.54,0,0,1,0,5l-3,3" style="fill: none; stroke: rgb(0, 0, 0); stroke-linecap: round; stroke-linejoin: round; stroke-width: 2;"></path><line x1="6" y1="8" x2="8" y2="6" style="fill: none; stroke: rgb(0, 0, 0); stroke-linecap: round; stroke-linejoin: round; stroke-width: 2;"></line><path d="M3,7A4,4,0,0,1,7,3" style="fill: none; stroke: rgb(0, 0, 0); stroke-linecap: round; stroke-linejoin: round; stroke-width: 2;"></path><line x1="16" y1="18" x2="18" y2="16" style="fill: none; stroke: rgb(0, 0, 0); stroke-linecap: round; stroke-linejoin: round; stroke-width: 2;"></line><path d="M17,21a4,4,0,0,0,4-4" style="fill: none; stroke: rgb(0, 0, 0); stroke-linecap: round; stroke-linejoin: round; stroke-width: 2;"></path><line x1="11" y1="13" x2="13" y2="11" style="fill: none; stroke: rgb(0, 0, 0); stroke-linecap: round; stroke-linejoin: round; stroke-width: 2;"></line></svg>