<svg class="icon line" width="48" height="48" id="unlnk-alt2" xmlns="http://www.w3.org/2000/svg" viewBox="0 0 24 24"><path d="M12,16.24,8.74,19.5a3,3,0,0,1-4.24,0h0a3,3,0,0,1,0-4.24L7.76,12" style="fill: none; stroke: rgb(0, 0, 0); stroke-linecap: round; stroke-linejoin: round; stroke-width: 2;"></path><path d="M12.5,7.26,15.76,4A3,3,0,0,1,20,4h0a3,3,0,0,1,0,4.24L16.74,11.5" style="fill: none; stroke: rgb(0, 0, 0); stroke-linecap: round; stroke-linejoin: round; stroke-width: 2;"></path><line x1="4" y1="4" x2="6" y2="6" style="fill: none; stroke: rgb(0, 0, 0); stroke-linecap: round; stroke-linejoin: round; stroke-width: 2;"></line><line x1="9" y1="5" x2="9" y2="3" style="fill: none; stroke: rgb(0, 0, 0); stroke-linecap: round; stroke-linejoin: round; stroke-width: 2;"></line><line x1="5" y1="9" x2="3" y2="9" style="fill: none; stroke: rgb(0, 0, 0); stroke-linecap: round; stroke-linejoin: round; stroke-width: 2;"></line><line x1="20" y1="20" x2="18" y2="18" style="fill: none; stroke: rgb(0, 0, 0); stroke-linecap: round; stroke-linejoin: round; stroke-width: 2;"></line><line x1="19" y1="15" x2="21" y2="15" style="fill: none; stroke: rgb(0, 0, 0); stroke-linecap: round; stroke-linejoin: round; stroke-width: 2;"></line><line x1="15" y1="19" x2="15" y2="21" style="fill: none; stroke: rgb(0, 0, 0); stroke-linecap: round; stroke-linejoin: round; stroke-width: 2;"></line><line x1="11" y1="13" x2="13" y2="11" style="fill: none; stroke: rgb(0, 0, 0); stroke-linecap: round; stroke-linejoin: round; stroke-width: 2;"></line></svg>