<svg class="icon line" width="48" height="48" id="unlock1" xmlns="http://www.w3.org/2000/svg" viewBox="0 0 24 24"><path d="M17,10H7V8a5,5,0,0,1,5-5h0a5,5,0,0,1,4.33,2.49" style="fill: none; stroke: rgb(0, 0, 0); stroke-linecap: round; stroke-linejoin: round; stroke-width: 2;"></path><path d="M19,11v2.71A7.19,7.19,0,0,1,12.21,21,7,7,0,0,1,5,14V11a1,1,0,0,1,1-1H18A1,1,0,0,1,19,11Z" style="fill: none; stroke: rgb(0, 0, 0); stroke-linecap: round; stroke-linejoin: round; stroke-width: 2;"></path><circle cx="12" cy="15" r="1" style="fill: none; stroke: rgb(0, 0, 0); stroke-linecap: round; stroke-linejoin: round; stroke-width: 2;"></circle><line x1="12" y1="17" x2="12" y2="16" style="fill: none; stroke: rgb(0, 0, 0); stroke-linecap: round; stroke-linejoin: round; stroke-width: 2;"></line></svg>