<svg class="icon line" width="48" height="48" id="up-alt-circle" xmlns="http://www.w3.org/2000/svg" viewBox="0 0 24 24"><path d="M12,3a9,9,0,1,0,9,9A9,9,0,0,0,12,3Zm2.59,9H14v4a1,1,0,0,1-1,1H11a1,1,0,0,1-1-1V12H9.41a1,1,0,0,1-.7-1.71l2.58-2.58a1,1,0,0,1,1.42,0l2.58,2.58A1,1,0,0,1,14.59,12Z" style="fill: none; stroke: rgb(0, 0, 0); stroke-linecap: round; stroke-linejoin: round; stroke-width: 2;"></path><path d="M14.59,12H14v4a1,1,0,0,1-1,1H11a1,1,0,0,1-1-1V12H9.41a1,1,0,0,1-.7-1.71l2.58-2.58a1,1,0,0,1,1.42,0l2.58,2.58A1,1,0,0,1,14.59,12Z" style="fill: none; stroke: rgb(0, 0, 0); stroke-linecap: round; stroke-linejoin: round; stroke-width: 2;"></path></svg>