<svg class="icon line" width="48" height="48" id="v-s-c-o" xmlns="http://www.w3.org/2000/svg" viewBox="0 0 24 24"><title style="stroke-width: 2; stroke: rgb(0, 0, 0);">VSCO</title><path id="primary" d="M21,12a9,9,0,1,1-9-9A9,9,0,0,1,21,12Zm-4,0a5,5,0,1,0-5,5A5,5,0,0,0,17,12ZM12,3V7m6.36-1.36L15.54,8.46M21,12H17m1.36,6.36-2.82-2.82M12,21V17M5.64,18.36l2.82-2.82M3,12H7M8.46,8.46,5.64,5.64" style="fill: none; stroke: rgb(0, 0, 0); stroke-linecap: round; stroke-linejoin: round; stroke-width: 2;"></path></svg>