<svg class="icon line" width="48" height="48" id="video-projector" xmlns="http://www.w3.org/2000/svg" viewBox="0 0 24 24"><title style="stroke-width: 2; stroke: rgb(0, 0, 0);">video projector</title><path id="primary" d="M17,11h3a1,1,0,0,1,1,1v6a1,1,0,0,1-1,1H4a1,1,0,0,1-1-1V12a1,1,0,0,1,1-1h7m3-2a3,3,0,1,0,3,3A3,3,0,0,0,14,9ZM5,21H7V19H5Zm14-2H17v2h2ZM14,3V5M8.84,4.63,10,6.27m9.18-1.64L18,6.27" style="fill: none; stroke: rgb(0, 0, 0); stroke-linecap: round; stroke-linejoin: round; stroke-width: 2;"></path></svg>