<svg class="icon line" width="48" height="48" id="video-projector-left" xmlns="http://www.w3.org/2000/svg" viewBox="0 0 24 24"><title style="stroke-width: 2; stroke: rgb(0, 0, 0);">video projector left</title><path id="primary" d="M13,11h7a1,1,0,0,1,1,1v6a1,1,0,0,1-1,1H4a1,1,0,0,1-1-1V12a1,1,0,0,1,1-1H7m0,1a3,3,0,1,0,3-3A3,3,0,0,0,7,12Zm12,7H17v2h2ZM5,21H7V19H5ZM10,3V5m5.16-.37L14,6.27M4.84,4.63,6,6.27" style="fill: none; stroke: rgb(0, 0, 0); stroke-linecap: round; stroke-linejoin: round; stroke-width: 2;"></path></svg>