<svg class="icon line" width="48" height="48" id="vine-circle" xmlns="http://www.w3.org/2000/svg" viewBox="0 0 24 24"><title style="stroke-width: 2; stroke: rgb(0, 0, 0);">vine circle</title><path id="primary" d="M17,11l-2.56.69a6.44,6.44,0,0,0,.28-2.22A1.55,1.55,0,0,0,13.12,8a1.45,1.45,0,0,0-1.35,1.6c0,.9.23,2.4,2.67,2.09A6.84,6.84,0,0,1,11.61,16,7.36,7.36,0,0,1,8,9.33M12,3a9,9,0,1,0,9,9A9,9,0,0,0,12,3Z" style="fill: none; stroke: rgb(0, 0, 0); stroke-linecap: round; stroke-linejoin: round; stroke-width: 2;"></path></svg>