<svg class="icon line" width="48" height="48" id="vine-square" xmlns="http://www.w3.org/2000/svg" viewBox="0 0 24 24"><title style="stroke-width: 2; stroke: rgb(0, 0, 0);">vine square</title><path id="primary" d="M20,21H4a1,1,0,0,1-1-1V4A1,1,0,0,1,4,3H20a1,1,0,0,1,1,1V20A1,1,0,0,1,20,21ZM7,8.67C7,14.78,10.89,17,10.89,17a9,9,0,0,0,3.78-6.6,8.65,8.65,0,0,0,.11-1.5,1.88,1.88,0,0,0-2-1.9,1.91,1.91,0,0,0-2,1.88c0,2.21,1.73,3.12,3.7,2.72L17,11" style="fill: none; stroke: rgb(0, 0, 0); stroke-linecap: round; stroke-linejoin: round; stroke-width: 2;"></path></svg>