<svg class="icon line" width="48" height="48" id="virtual-reality" xmlns="http://www.w3.org/2000/svg" viewBox="0 0 24 24"><title style="stroke-width: 2; stroke: rgb(0, 0, 0);">virtual reality</title><path id="primary" d="M21,13.5v3L19,17V13Zm-18,0v3L5,17V13ZM18,11H6a1,1,0,0,0-1,1v6a1,1,0,0,0,1,1H7.75a2.49,2.49,0,0,0,2-1h0a2.49,2.49,0,0,1,2-1h.5a2.49,2.49,0,0,1,2,1h0a2.49,2.49,0,0,0,2,1H18a1,1,0,0,0,1-1V12A1,1,0,0,0,18,11ZM14,6a1,1,0,0,0-1-1H11a1,1,0,0,0-1,1v5h4Z" style="fill: none; stroke: rgb(0, 0, 0); stroke-linecap: round; stroke-linejoin: round; stroke-width: 2;"></path></svg>