<svg class="icon line" width="48" height="48" id="walkie-talkie-left" xmlns="http://www.w3.org/2000/svg" viewBox="0 0 24 24"><title style="stroke-width: 2; stroke: rgb(0, 0, 0);">walkie talkie left</title><path id="primary" d="M17,8v5.88A4.72,4.72,0,0,1,16.5,16h0a4.72,4.72,0,0,0-.5,2.12V20a1,1,0,0,1-1,1H9a1,1,0,0,1-1-1V18.12A4.72,4.72,0,0,0,7.5,16h0A4.72,4.72,0,0,1,7,13.88V8A1,1,0,0,1,8,7h8A1,1,0,0,1,17,8ZM10,3V7m4-2V7" style="fill: none; stroke: rgb(0, 0, 0); stroke-linecap: round; stroke-linejoin: round; stroke-width: 2;"></path></svg>