<svg class="icon line" width="48" height="48" id="wallet-money-2" xmlns="http://www.w3.org/2000/svg" viewBox="0 0 24 24"><title style="stroke-width: 2; stroke: rgb(0, 0, 0);">wallet money-2</title><path id="primary" d="M20,17v3a1,1,0,0,1-1,1H4a1,1,0,0,1-1-1V10A1,1,0,0,1,4,9H19a1,1,0,0,1,1,1v3M17.21,9,19,6.44,14.09,3,9.88,9ZM9.09,4,5.58,9h4.3L12,6ZM21,13H16a1,1,0,0,0-1,1v2a1,1,0,0,0,1,1h5Z" style="fill: none; stroke: rgb(0, 0, 0); stroke-linecap: round; stroke-linejoin: round; stroke-width: 2;"></path></svg>