<svg class="icon line" width="48" height="48" id="warning-alt2" xmlns="http://www.w3.org/2000/svg" viewBox="0 0 24 24"><path id="primary" d="M17.48,3.5l4.62,8a1,1,0,0,1,0,1l-4.62,8a1,1,0,0,1-.86.5H7.38a1,1,0,0,1-.86-.5l-4.62-8a1,1,0,0,1,0-1l4.62-8A1,1,0,0,1,7.38,3h9.24A1,1,0,0,1,17.48,3.5ZM12,7v6" style="fill: none; stroke: rgb(0, 0, 0); stroke-linecap: round; stroke-linejoin: round; stroke-width: 2;"></path><line id="secondary" x1="12" y1="17" x2="12" y2="17" style="fill: none; stroke: rgb(0, 0, 0); stroke-linecap: round; stroke-linejoin: round; stroke-width: 2.5;"></line></svg>