<svg class="icon line" width="48" height="48" id="watch-circle3-o_clock" xmlns="http://www.w3.org/2000/svg" viewBox="0 0 24 24"><title style="stroke-width: 2; stroke: rgb(0, 0, 0);">watch circle 3 o&amp;apos;clock</title><path id="primary" d="M14,13H12V9m0-4.5A7.5,7.5,0,1,0,19.5,12,7.5,7.5,0,0,0,12,4.5Zm0,0a7.49,7.49,0,0,1,4,1.16V3H8V5.66A7.49,7.49,0,0,1,12,4.5Zm0,15a7.49,7.49,0,0,1-4-1.16V21h8V18.34A7.49,7.49,0,0,1,12,19.5Z" style="fill: none; stroke: rgb(0, 0, 0); stroke-linecap: round; stroke-linejoin: round; stroke-width: 2;"></path></svg>