<svg class="icon line" width="48" height="48" id="waze" xmlns="http://www.w3.org/2000/svg" viewBox="0 0 24 24"><title style="stroke-width: 2; stroke: rgb(0, 0, 0);">waze</title><path id="primary" d="M6.66,17.52A7,7,0,0,1,3,13a2.27,2.27,0,0,0,.63.08A2.4,2.4,0,0,0,6,10.6v-.11C6,6.57,8.25,3,13.38,3,18,3,21,6.51,21,11a8.08,8.08,0,0,1-3.5,6.7m-7.53,1a17.29,17.29,0,0,0,3.33.3c.24,0,.47,0,.7,0m2-2a2,2,0,1,0,2,2A2,2,0,0,0,16,17ZM6,19a2,2,0,1,0,2-2A2,2,0,0,0,6,19Z" style="fill: none; stroke: rgb(0, 0, 0); stroke-linecap: round; stroke-linejoin: round; stroke-width: 2;"></path><line id="primary-upstroke" x1="16" y1="9" x2="16" y2="9" style="fill: none; stroke: rgb(0, 0, 0); stroke-linecap: round; stroke-linejoin: round; stroke-width: 2;"></line><line id="primary-upstroke-2" data-name="primary-upstroke" x1="11" y1="9" x2="11" y2="9" style="fill: none; stroke: rgb(0, 0, 0); stroke-linecap: round; stroke-linejoin: round; stroke-width: 2;"></line></svg>