<svg class="icon line" width="48" height="48" id="whatsapp-square" xmlns="http://www.w3.org/2000/svg" viewBox="0 0 24 24"><title style="stroke-width: 2; stroke: rgb(0, 0, 0);">whatsapp square</title><path id="primary" d="M20,21H4a1,1,0,0,1-1-1V4A1,1,0,0,1,4,3H20a1,1,0,0,1,1,1V20A1,1,0,0,1,20,21ZM11.19,7.06a5,5,0,0,0-4.1,4,4.93,4.93,0,0,0,.47,3.22L7,17l2.71-.56a4.93,4.93,0,0,0,3.22.47,5,5,0,0,0-1.74-9.85Z" style="fill: none; stroke: rgb(0, 0, 0); stroke-linecap: round; stroke-linejoin: round; stroke-width: 2;"></path></svg>