<svg class="icon line" width="48" height="48" id="work" xmlns="http://www.w3.org/2000/svg" viewBox="0 0 24 24"><title style="stroke-width: 2; stroke: rgb(0, 0, 0);">work</title><path id="primary" d="M13,15H11V13h2ZM16,4a1,1,0,0,0-1-1H9A1,1,0,0,0,8,4V7h8Zm5,16V8a1,1,0,0,0-1-1H4A1,1,0,0,0,3,8V20a1,1,0,0,0,1,1H20A1,1,0,0,0,21,20ZM11,14H8.64A4,4,0,0,1,5,11.58L3.18,7.43m17.64,0L19,11.58A4,4,0,0,1,15.36,14H13" style="fill: none; stroke: rgb(0, 0, 0); stroke-linecap: round; stroke-linejoin: round; stroke-width: 2;"></path></svg>