<svg class="icon line" width="48" height="48" id="world" xmlns="http://www.w3.org/2000/svg" viewBox="0 0 24 24"><circle cx="12" cy="12" r="9" style="fill: none; stroke: rgb(0, 0, 0); stroke-linecap: round; stroke-linejoin: round; stroke-width: 2;"></circle><ellipse cx="12" cy="12" rx="3" ry="9" style="fill: none; stroke: rgb(0, 0, 0); stroke-linecap: round; stroke-linejoin: round; stroke-width: 2;"></ellipse><path d="M19.2,17.4a9.7,9.7,0,0,0-4.42-2.1,13,13,0,0,0-5.56,0A9.7,9.7,0,0,0,4.8,17.4" style="fill: none; stroke: rgb(0, 0, 0); stroke-linecap: round; stroke-linejoin: round; stroke-width: 2;"></path><path d="M19.2,6.6a9.7,9.7,0,0,1-4.42,2.1A12.53,12.53,0,0,1,12,9a12.53,12.53,0,0,1-2.78-.3A9.7,9.7,0,0,1,4.8,6.6" style="fill: none; stroke: rgb(0, 0, 0); stroke-linecap: round; stroke-linejoin: round; stroke-width: 2;"></path></svg>