<svg class="icon line" width="48" height="48" id="zoom-square" xmlns="http://www.w3.org/2000/svg" viewBox="0 0 24 24"><title style="stroke-width: 2; stroke: rgb(0, 0, 0);">zoom square</title><path id="primary" d="M20,21H4a1,1,0,0,1-1-1V4A1,1,0,0,1,4,3H20a1,1,0,0,1,1,1V20A1,1,0,0,1,20,21Zm-7-7V11a2,2,0,0,0-2-2H8a1,1,0,0,0-1,1v3a2,2,0,0,0,2,2h3A1,1,0,0,0,13,14Zm0-1,2.55,1.28a1,1,0,0,0,1.45-.9V10.62a1,1,0,0,0-1.45-.9L13,11Z" style="fill: none; stroke: rgb(0, 0, 0); stroke-linecap: round; stroke-linejoin: round; stroke-width: 2;"></path></svg>